<?xml version="1.0" encoding="UTF-8" standalone="no"?><!DOCTYPE svg PUBLIC "-//W3C//DTD SVG 1.1//EN" "http://www.w3.org/Graphics/SVG/1.1/DTD/svg11.dtd"><svg width="100%" height="100%" viewBox="0 0 1000 1000" version="1.1" xmlns="http://www.w3.org/2000/svg" xmlns:xlink="http://www.w3.org/1999/xlink" xml:space="preserve" xmlns:serif="http://www.serif.com/" style="fill-rule:evenodd;clip-rule:evenodd;stroke-miterlimit:2;"><g><path d="M732.791,661.069l-293.228,0c-16.686,0 -32.532,-7.287 -43.391,-19.955c-10.852,-12.668 -26.698,-19.955 -43.384,-19.955l-42.68,0c-27.659,0 -55.211,-3.352 -82.06,-9.996l-34.878,-8.627c-14.885,-3.678 -21.522,-21.083 -12.857,-33.735c6.591,-9.641 4.495,-22.755 -4.783,-29.861l-31.405,-24.042c-15.18,-11.624 -21.968,-31.185 -17.246,-49.71l23.005,-90.316l6.137,-19.834c5.161,-16.686 20.591,-28.06 38.056,-28.06c6.909,0 13.689,-1.793 19.698,-5.206l27.636,-15.717c13.311,-7.567 29.558,-7.862 43.134,-0.78l87.267,45.533c11.722,6.115 15.43,21.121 7.908,31.995c-4.162,6.008 -5.123,13.689 -2.422,20.485c10.284,25.835 42.809,87.993 121.494,101.569c71.406,12.312 107.124,-12.744 121.706,-28.067c6.561,-6.894 15.241,-11.343 24.715,-12.229l67.092,-6.22c17.745,-1.65 35.62,1.377 51.829,8.771l95.636,43.611c12.441,5.668 18.131,20.159 12.872,32.782c-12.895,30.95 -35.302,82.333 -40.894,79.934c-5.88,-2.512 -58.761,-19.879 -86.222,-28.854c-7.265,-2.376 -14.302,4.079 -12.645,11.54l9.542,42.937c1.37,6.16 -3.322,12.009 -9.633,12.009Z" style="fill:none;stroke:#102129;stroke-width:19.17px;"/><path d="M556.948,623.823l0,76.014" style="fill:none;stroke:#102129;stroke-width:19.17px;"/></g></svg>