<?xml version="1.0" encoding="UTF-8" standalone="no"?><!DOCTYPE svg PUBLIC "-//W3C//DTD SVG 1.1//EN" "http://www.w3.org/Graphics/SVG/1.1/DTD/svg11.dtd"><svg width="100%" height="100%" viewBox="0 0 3255 1742" version="1.1" xmlns="http://www.w3.org/2000/svg" xmlns:xlink="http://www.w3.org/1999/xlink" xml:space="preserve" xmlns:serif="http://www.serif.com/" style="fill-rule:evenodd;clip-rule:evenodd;stroke-miterlimit:2;"><rect id="Artboard1" x="0" y="0" width="3254.167" height="1741.667" style="fill:none;"/><clipPath id="_clip1"><rect x="0" y="0" width="3254.167" height="1741.667"/></clipPath><g clip-path="url(#_clip1)"><g><path d="M2603.296,1554.454l-1221.783,0c-69.525,0 -135.55,-30.363 -180.796,-83.146c-45.217,-52.783 -111.242,-83.146 -180.767,-83.146l-177.833,0c-115.246,0 -230.046,-13.967 -341.917,-41.65l-145.325,-35.946c-62.021,-15.325 -89.675,-87.846 -53.571,-140.562c27.463,-40.171 18.729,-94.812 -19.929,-124.421l-130.854,-100.175c-63.25,-48.433 -91.533,-129.938 -71.858,-207.125l95.854,-376.317l25.571,-82.642c21.504,-69.525 85.796,-116.917 158.567,-116.917c28.788,0 57.038,-7.471 82.075,-21.692l115.15,-65.487c55.463,-31.529 123.158,-32.758 179.725,-3.25l363.613,189.721c48.842,25.479 64.292,88.004 32.95,133.312c-17.342,25.033 -21.346,57.038 -10.092,85.354c42.85,107.646 178.371,366.638 506.225,423.204c297.525,51.3 446.35,-53.1 507.108,-116.946c27.338,-28.725 63.504,-47.263 102.979,-50.954l279.55,-25.917c73.938,-6.875 148.417,5.737 215.954,36.546l398.483,181.713c51.838,23.617 75.546,83.996 53.633,136.592c-53.729,128.958 -147.092,343.054 -170.392,333.058c-24.5,-10.467 -244.838,-82.829 -359.258,-120.225c-30.271,-9.9 -59.592,16.996 -52.688,48.083l39.758,178.904c5.708,25.667 -9.675,54.204 -40.138,50.037l0.004,-0.008Z" style="fill:none;stroke:#000;stroke-width:79.88px;"/><path d="M1870.617,1399.263l0,316.725" style="fill:none;stroke:#000;stroke-width:79.88px;"/></g></g></svg>