<?xml version="1.0" encoding="UTF-8" standalone="no"?><!DOCTYPE svg PUBLIC "-//W3C//DTD SVG 1.1//EN" "http://www.w3.org/Graphics/SVG/1.1/DTD/svg11.dtd"><svg width="100%" height="100%" viewBox="0 0 3184 2363" version="1.1" xmlns="http://www.w3.org/2000/svg" xmlns:xlink="http://www.w3.org/1999/xlink" xml:space="preserve" xmlns:serif="http://www.serif.com/" style="fill-rule:evenodd;clip-rule:evenodd;stroke-miterlimit:2;"><rect id="Artboard1" x="0" y="0" width="3183.333" height="2362.5" style="fill:none;"/><clipPath id="_clip1"><rect x="0" y="0" width="3183.333" height="2362.5"/></clipPath><g clip-path="url(#_clip1)"><g><path d="M2937.804,2182.742l-2784.571,0c-39.738,0 -64.525,-42.925 -44.733,-77.321c51.379,-89.192 61.871,-196.217 28.783,-293.713c-48.038,-141.612 -58.796,-293.212 -31.242,-440.204l225.196,-1201.025c15.45,-82.392 101.492,-130.929 179.963,-101.492c38.392,14.413 68.133,45.425 80.854,84.392l44.154,134.883c35.046,107.062 108.371,197.45 205.979,253.788c124.896,72.092 208.442,198.908 225.463,342.096c16.296,137.346 83.467,263.625 188.225,353.933l266.467,229.654c22.867,19.713 7.342,57.183 -22.75,54.917l-606.142,-45.346c-169.742,-12.721 -335.987,52.992 -451.158,178.35c-16.025,17.446 -3.65,45.575 20.021,45.575l1786.258,0c63.908,0 108.717,-63.062 87.658,-123.396c-69.75,-200.137 -214.279,-365.5 -403.312,-461.342c-99.338,-50.342 -145.8,-166.667 -108.521,-271.579l161.442,-454.579c20.292,-57.104 97.688,-65.329 129.504,-13.721l960.958,1558.067c48.113,78.05 18.554,174.492 -57.146,226.271c-33.083,22.629 -48.633,21.787 -81.354,21.787l0.004,0.004Z" style="fill:none;stroke:#000;stroke-width:79.88px;"/><path d="M1680.058,2050.817l0,263.854" style="fill:none;stroke:#000;stroke-width:79.88px;"/></g></g></svg>