<?xml version="1.0" encoding="UTF-8" standalone="no"?><!DOCTYPE svg PUBLIC "-//W3C//DTD SVG 1.1//EN" "http://www.w3.org/Graphics/SVG/1.1/DTD/svg11.dtd"><svg width="100%" height="100%" viewBox="0 0 1000 1000" version="1.1" xmlns="http://www.w3.org/2000/svg" xmlns:xlink="http://www.w3.org/1999/xlink" xml:space="preserve" xmlns:serif="http://www.serif.com/" style="fill-rule:evenodd;clip-rule:evenodd;stroke-miterlimit:2;"><g><path d="M822.073,738.858l-668.297,0c-9.537,0 -15.486,-10.302 -10.736,-18.557c12.331,-21.406 14.849,-47.092 6.908,-70.491c-11.529,-33.987 -14.111,-70.371 -7.498,-105.649l54.047,-288.246c3.708,-19.774 24.358,-31.423 43.191,-24.358c9.214,3.459 16.352,10.902 19.405,20.254l10.597,32.372c8.411,25.695 26.009,47.388 49.435,60.909c29.975,17.302 50.026,47.738 54.111,82.103c3.911,32.963 20.032,63.27 45.174,84.944l63.952,55.117c5.488,4.731 1.762,13.724 -5.46,13.18l-145.474,-10.883c-40.738,-3.053 -80.637,12.718 -108.278,42.804c-3.846,4.187 -0.876,10.938 4.805,10.938l428.702,0c15.338,0 26.092,-15.135 21.038,-29.615c-16.74,-48.033 -51.427,-87.72 -96.795,-110.722c-23.841,-12.082 -34.992,-40 -26.045,-65.179l38.746,-109.099c4.87,-13.705 23.445,-15.679 31.081,-3.293l230.63,373.936c11.547,18.732 5.349,43.302 -13.715,54.305c-5.94,3.431 -12.672,5.229 -19.525,5.229Z" style="fill:none;stroke:#102129;stroke-width:19.17px;"/><path d="M520.214,707.196l0,63.325" style="fill:none;stroke:#102129;stroke-width:19.17px;"/></g></svg>