<?xml version="1.0" encoding="UTF-8" standalone="no"?><!DOCTYPE svg PUBLIC "-//W3C//DTD SVG 1.1//EN" "http://www.w3.org/Graphics/SVG/1.1/DTD/svg11.dtd"><svg width="100%" height="100%" viewBox="0 0 3417 1921" version="1.1" xmlns="http://www.w3.org/2000/svg" xmlns:xlink="http://www.w3.org/1999/xlink" xml:space="preserve" xmlns:serif="http://www.serif.com/" style="fill-rule:evenodd;clip-rule:evenodd;stroke-miterlimit:2;"><rect id="Artboard1" x="0" y="0" width="3416.667" height="1920.833" style="fill:none;"/><clipPath id="_clip1"><rect x="0" y="0" width="3416.667" height="1920.833"/></clipPath><g clip-path="url(#_clip1)"><g><path d="M3286.704,598.9l-64.721,-426.421c-6.958,-45.833 -49.863,-77.296 -95.654,-70.133l-739.071,115.354c-46.158,7.204 -77.175,51.208 -68.425,97.079l31.304,164.404c8.588,45.058 -21.208,88.492 -66.35,96.754l-635.679,115.967c-33.542,6.104 -57.921,35.329 -57.921,69.442l0,28.046c0,32.117 -21.696,60.2 -52.792,68.304l-351.85,91.625c-49.779,12.983 -98.425,-24.625 -98.425,-76.075c0,-42.575 -33.867,-77.379 -76.4,-78.558l-35.779,-1.017c-42.579,-1.183 -76.442,-36.025 -76.442,-78.562l0,-22.063c0,-45.792 -38.996,-81.896 -84.625,-78.396l-409.892,31.546c-71.642,5.496 -132.817,53.933 -154.596,122.479l-133.183,419.012c-28.208,88.775 -6.675,185.896 56.458,254.404l315.217,342.242c66.554,72.292 183.821,60.65 234.904,-23.283l44.733,-73.433l258.637,-87.554c51.696,-17.504 92.4,-57.921 110.188,-109.492l38.833,-112.425c20.758,-60.121 65.004,-109.25 122.563,-136.237l226.317,-106.117c179.792,-84.258 368.333,-148.408 562.171,-191.312l1135.817,-251.308c43.025,-9.525 71.275,-50.717 64.679,-94.271l-0.017,0Z" style="fill:none;stroke:#000;stroke-width:79.88px;"/><path d="M2821.756,640.3l73.026,268.033" style="fill:none;stroke:#000;stroke-width:62.5px;"/></g></g></svg>