<?xml version="1.0" encoding="UTF-8" standalone="no"?><!DOCTYPE svg PUBLIC "-//W3C//DTD SVG 1.1//EN" "http://www.w3.org/Graphics/SVG/1.1/DTD/svg11.dtd"><svg width="100%" height="100%" viewBox="0 0 1000 1000" version="1.1" xmlns="http://www.w3.org/2000/svg" xmlns:xlink="http://www.w3.org/1999/xlink" xml:space="preserve" xmlns:serif="http://www.serif.com/" style="fill-rule:evenodd;clip-rule:evenodd;stroke-miterlimit:2;"><g><path d="M881.809,411.736l-15.533,-102.341c-1.67,-11 -11.967,-18.551 -22.957,-16.832l-177.377,27.685c-11.078,1.729 -18.522,12.29 -16.422,23.299l7.513,39.457c2.061,10.814 -5.09,21.238 -15.924,23.221l-152.563,27.832c-8.05,1.465 -13.901,8.479 -13.901,16.666l0,6.731c0,7.708 -5.207,14.448 -12.67,16.393l-84.444,21.99c-11.947,3.116 -23.622,-5.91 -23.622,-18.258c0,-10.218 -8.128,-18.571 -18.336,-18.854l-8.587,-0.244c-10.219,-0.284 -18.346,-8.646 -18.346,-18.855l0,-5.295c0,-10.99 -9.359,-19.655 -20.31,-18.815l-98.374,7.571c-17.194,1.319 -31.876,12.944 -37.103,29.395l-31.964,100.563c-6.77,21.306 -1.602,44.615 13.55,61.057l75.652,82.138c15.973,17.35 44.117,14.556 56.377,-5.588l10.736,-17.624l62.073,-21.013c12.407,-4.201 22.176,-13.901 26.445,-26.278l9.32,-26.982c4.982,-14.429 15.601,-26.22 29.415,-32.697l54.316,-25.468c43.15,-20.222 88.4,-35.618 134.921,-45.915l272.596,-60.314c10.326,-2.286 17.106,-12.172 15.523,-22.625Z" style="fill:none;stroke:#102129;stroke-width:19.17px;"/><path d="M766.407,407.672l25.155,92.328" style="fill:none;stroke:#102129;stroke-width:19.17px;"/></g></svg>