<?xml version="1.0" encoding="UTF-8" standalone="no"?><!DOCTYPE svg PUBLIC "-//W3C//DTD SVG 1.1//EN" "http://www.w3.org/Graphics/SVG/1.1/DTD/svg11.dtd"><svg width="100%" height="100%" viewBox="0 0 1000 1000" version="1.1" xmlns="http://www.w3.org/2000/svg" xmlns:xlink="http://www.w3.org/1999/xlink" xml:space="preserve" xmlns:serif="http://www.serif.com/" style="fill-rule:evenodd;clip-rule:evenodd;stroke-miterlimit:2;"><g><path d="M196.617,561.409c-4.431,-13.586 -13.725,-25.052 -26.096,-32.189l-31.779,-18.349c-21.379,-12.341 -34.547,-35.158 -34.547,-59.839c0,-46.718 37.864,-84.582 84.582,-84.582l154.326,0c17.049,0 28.385,17.629 21.318,33.14l-5.583,12.248c-12.457,27.325 -39.728,44.862 -69.752,44.862l-78.11,0c-10.601,0 -15.542,13.137 -7.57,20.119l75.048,65.77c12.967,11.366 29.622,17.629 46.865,17.629l58.192,0c16.856,0 30.527,-13.663 30.527,-30.527l0,-15.998c0,-12.023 3.82,-23.738 10.918,-33.442l63.674,-87.08c8.9,-12.186 25.555,-15.696 38.622,-8.15l261.193,150.801c9.078,5.235 20.127,-2.567 18.225,-12.866l-4.562,-24.758c-4.469,-24.24 -20.861,-44.599 -43.586,-54.141c-16.918,-7.106 -25.555,-26.003 -19.856,-43.447c6.124,-18.758 26.459,-28.833 45.094,-22.346l69.713,24.264c15.549,5.42 25.98,20.08 25.98,36.558l0,43.215c0,7.4 2.946,14.498 8.181,19.733c5.235,5.235 8.173,12.333 8.173,19.74l0,33.14c0,25.655 -20.8,46.447 -46.447,46.447l-597.689,0c-25.068,0 -47.282,-16.122 -55.053,-39.952Z" style="fill:none;stroke:#102129;stroke-width:19.17px;"/><path d="M658.575,568.847l0,64.703" style="fill:none;stroke:#102129;stroke-width:19.17px;"/></g></svg>