<?xml version="1.0" encoding="UTF-8" standalone="no"?><!DOCTYPE svg PUBLIC "-//W3C//DTD SVG 1.1//EN" "http://www.w3.org/Graphics/SVG/1.1/DTD/svg11.dtd"><svg width="100%" height="100%" viewBox="0 0 3467 1250" version="1.1" xmlns="http://www.w3.org/2000/svg" xmlns:xlink="http://www.w3.org/1999/xlink" xml:space="preserve" xmlns:serif="http://www.serif.com/" style="fill-rule:evenodd;clip-rule:evenodd;stroke-miterlimit:2;"><rect id="Artboard1" x="0" y="0" width="3466.667" height="1250" style="fill:none;"/><clipPath id="_clip1"><rect x="0" y="0" width="3466.667" height="1250"/></clipPath><g clip-path="url(#_clip1)"><g><path d="M448.404,901.704c-18.463,-56.608 -57.188,-104.383 -108.733,-134.121l-132.412,-76.454c-89.079,-51.421 -143.946,-146.492 -143.946,-249.329c0,-194.658 157.767,-352.425 352.425,-352.425l643.025,0c71.037,0 118.271,73.454 88.825,138.083l-23.262,51.033c-51.904,113.854 -165.533,186.925 -290.633,186.925l-325.458,0c-44.171,0 -64.758,54.737 -31.542,83.829l312.7,274.042c54.029,47.358 123.425,73.454 195.271,73.454l242.467,0c70.233,0 127.196,-56.929 127.196,-127.196l0,-66.658c0,-50.096 15.917,-98.908 45.492,-139.342l265.308,-362.833c37.083,-50.775 106.479,-65.4 160.925,-33.958l1088.304,628.337c37.825,21.812 83.862,-10.696 75.938,-53.608l-19.008,-103.158c-18.621,-101 -86.921,-185.829 -181.608,-225.588c-70.492,-29.608 -106.479,-108.346 -82.733,-181.029c25.517,-78.158 110.246,-120.137 187.892,-93.108l290.471,101.1c64.787,22.583 108.25,83.667 108.25,152.325l0,180.063c0,30.833 12.275,60.408 34.088,82.221c21.812,21.812 34.054,51.387 34.054,82.25l0,138.083c0,106.896 -86.667,193.529 -193.529,193.529l-2490.371,0c-104.45,0 -197.008,-67.175 -229.388,-166.467l-0.004,0Z" style="fill:none;stroke:#000;stroke-width:79.88px;"/><path d="M2373.229,932.696l0,269.596" style="fill:none;stroke:#000;stroke-width:79.88px;"/></g></g></svg>