<?xml version="1.0" encoding="UTF-8" standalone="no"?><!DOCTYPE svg PUBLIC "-//W3C//DTD SVG 1.1//EN" "http://www.w3.org/Graphics/SVG/1.1/DTD/svg11.dtd"><svg width="100%" height="100%" viewBox="0 0 3267 2617" version="1.1" xmlns="http://www.w3.org/2000/svg" xmlns:xlink="http://www.w3.org/1999/xlink" xml:space="preserve" xmlns:serif="http://www.serif.com/" style="fill-rule:evenodd;clip-rule:evenodd;stroke-miterlimit:2;"><rect id="Artboard1" x="0" y="0" width="3266.667" height="2616.667" style="fill:none;"/><g><path d="M1850.179,776.637c0,0 566.35,-253.35 909.133,-447.108c154.263,-87.196 261.254,-140.171 332.242,-172.067c43.2,-19.425 87.321,24.908 67.679,68.017l-218.146,479.217c-21.446,47.092 -55.15,87.567 -97.613,117.129l-152.854,106.438c-39.371,27.421 -86.188,42.129 -134.167,42.129l-98.596,0c-54.138,0 -105.088,25.612 -137.413,69.058l-42.496,57.079c-36,48.379 -98.717,69.917 -156.196,51.658c-79.017,-25.125 -190.112,-44.979 -251.696,12.654c-102.671,96.021 -49.696,291.433 -135.792,351.054c-86.125,59.621 -86.125,115.904 -86.125,162.292c0,33.762 -191.612,252.154 -295.629,368.213c-39.342,43.875 -47.213,107.267 -20.067,159.567l114.433,220.688c24.388,47.062 -23.438,98.838 -72.275,78.279l-1183.746,-498.792c-52.3,-22.029 -62.963,-91.517 -19.637,-128.192l275.379,-233.279c30.208,-25.583 73.9,-26.963 105.579,-3.279c140.812,105.304 519.812,366.896 632.317,222.25c108.95,-140.079 -77.729,-420.358 -163.763,-535.283c-18.354,-24.512 -3.217,-59.929 27.267,-62.746c49.021,-4.533 111.125,-0.642 136.496,41.637c22.429,37.35 33.579,74.696 39.154,102.671c4.996,25.062 28.921,41.575 53.925,36.458l87.288,-17.863c35.542,-7.262 48.717,-51.133 23.071,-76.812l-215.908,-215.908c-31.558,-31.525 -20.221,-85.113 21.387,-101.2l656.767,-253.963l0,0.004Z" style="fill:none;stroke:#000;stroke-width:79.88px;"/><path d="M2287.358,418.962l112.596,231.842" style="fill:none;stroke:#000;stroke-width:79.88px;"/></g></svg>