<?xml version="1.0" encoding="UTF-8" standalone="no"?><!DOCTYPE svg PUBLIC "-//W3C//DTD SVG 1.1//EN" "http://www.w3.org/Graphics/SVG/1.1/DTD/svg11.dtd"><svg width="100%" height="100%" viewBox="0 0 1000 1000" version="1.1" xmlns="http://www.w3.org/2000/svg" xmlns:xlink="http://www.w3.org/1999/xlink" xml:space="preserve" xmlns:serif="http://www.serif.com/" style="fill-rule:evenodd;clip-rule:evenodd;stroke-miterlimit:2;"><g><path d="M547.043,367.393c0,0 135.924,-60.804 218.192,-107.306c37.023,-20.927 62.701,-33.641 79.738,-41.296c10.368,-4.662 20.957,5.978 16.243,16.324l-52.355,115.012c-5.147,11.302 -13.236,21.016 -23.427,28.111l-36.685,25.545c-9.449,6.581 -20.685,10.111 -32.2,10.111l-23.663,0c-12.993,0 -25.221,6.147 -32.979,16.574l-10.199,13.699c-8.64,11.611 -23.692,16.78 -37.487,12.398c-18.964,-6.03 -45.627,-10.795 -60.407,3.037c-24.641,23.045 -11.927,69.944 -32.59,84.253c-20.67,14.309 -20.67,27.817 -20.67,38.95c0,8.103 -45.987,60.517 -70.951,88.371c-9.442,10.53 -11.331,25.744 -4.816,38.296l27.464,52.965c5.853,11.295 -5.625,23.721 -17.346,18.787l-284.099,-119.71c-12.552,-5.287 -15.111,-21.964 -4.713,-30.766l66.091,-55.987c7.25,-6.14 17.736,-6.471 25.339,-0.787c33.795,25.273 124.755,88.055 151.756,53.34c26.148,-33.619 -18.655,-100.886 -39.303,-128.468c-4.405,-5.883 -0.772,-14.383 6.544,-15.059c11.765,-1.088 26.67,-0.154 32.759,9.993c5.383,8.964 8.059,17.927 9.397,24.641c1.199,6.015 6.941,9.978 12.942,8.75l20.949,-4.287c8.53,-1.743 11.692,-12.272 5.537,-18.435l-51.818,-51.818c-7.574,-7.566 -4.853,-20.427 5.133,-24.288l157.624,-60.951Z" style="fill:none;stroke:#102129;stroke-width:19.17px;"/><path d="M651.966,281.551l27.023,55.642" style="fill:none;stroke:#102129;stroke-width:19.17px;"/></g></svg>