<?xml version="1.0" encoding="UTF-8" standalone="no"?><!DOCTYPE svg PUBLIC "-//W3C//DTD SVG 1.1//EN" "http://www.w3.org/Graphics/SVG/1.1/DTD/svg11.dtd"><svg width="100%" height="100%" viewBox="0 0 1000 1000" version="1.1" xmlns="http://www.w3.org/2000/svg" xmlns:xlink="http://www.w3.org/1999/xlink" xml:space="preserve" xmlns:serif="http://www.serif.com/" style="fill-rule:evenodd;clip-rule:evenodd;stroke-miterlimit:2;"><g><path d="M218.798,733.911l0,-416.015c0,-23.77 17.142,-43.034 38.293,-43.034c21.151,0 38.293,19.264 38.293,43.034l0,127.273c0,17.427 12.569,31.552 28.084,31.552c10.711,0 20.496,-6.855 25.215,-17.669l25.701,-58.953c7.117,-16.326 20.473,-28.129 36.281,-32.037l169.305,-41.942c19.324,-4.783 39.057,-7.201 58.851,-7.201l19.81,0c13.595,0 26.441,-7.01 34.854,-19.021l64.534,-92.169c6.107,-8.726 15.445,-13.822 25.323,-13.822c18.992,0 33.867,18.38 32.071,39.628l-13.101,155.299c-1.072,12.756 -9.184,23.363 -20.242,26.465c-5.776,1.621 -10.904,5.347 -14.589,10.598l-44.987,64.066c-9.531,13.571 -10.456,32.41 -2.321,47.081l12.23,22.046c12.484,22.496 6.547,52.098 -13.317,66.397l-52.112,37.522c-18.592,13.38 -32.456,33.606 -39.226,57.22l-12.947,45.148c-7.179,25.027 -28.292,41.647 -51.68,40.677l-94.453,-3.908c-23.303,-0.962 -43.298,-18.969 -49.212,-44.316c-3,-12.843 -9.731,-24.186 -19.124,-32.219l-30.197,-25.832c-10.541,-9.021 -17.689,-22.158 -20.026,-36.812l-3.94,-24.724c-1.951,-12.236 -11.42,-21.136 -22.478,-21.136c-12.615,0 -22.833,11.482 -22.833,25.659l0,91.146c0,25.469 -18.376,46.11 -41.031,46.11c-22.663,0 -41.031,-20.642 -41.031,-46.11Z" style="fill:none;stroke:#102129;stroke-width:19.17px;"/><path d="M252.573,647.332l-68.135,0" style="fill:none;stroke:#102129;stroke-width:19.17px;"/></g></svg>