<?xml version="1.0" encoding="UTF-8" standalone="no"?><!DOCTYPE svg PUBLIC "-//W3C//DTD SVG 1.1//EN" "http://www.w3.org/Graphics/SVG/1.1/DTD/svg11.dtd"><svg width="100%" height="100%" viewBox="0 0 2792 2705" version="1.1" xmlns="http://www.w3.org/2000/svg" xmlns:xlink="http://www.w3.org/1999/xlink" xml:space="preserve" xmlns:serif="http://www.serif.com/" style="fill-rule:evenodd;clip-rule:evenodd;stroke-miterlimit:2;"><rect id="Artboard1" x="0" y="0" width="2791.667" height="2704.167" style="fill:none;"/><clipPath id="_clip1"><rect x="0" y="0" width="2791.667" height="2704.167"/></clipPath><g clip-path="url(#_clip1)"><g><g><path d="M182.492,2312.129l0,-1733.396c0,-99.042 71.425,-179.308 159.554,-179.308c88.129,0 159.554,80.267 159.554,179.308l0,530.304c0,72.613 52.371,131.467 117.017,131.467c44.629,0 85.4,-28.562 105.062,-73.621l107.088,-245.638c29.654,-68.025 85.304,-117.204 151.171,-133.487l705.438,-174.758c80.517,-19.929 162.738,-30.004 245.213,-30.004l82.542,0c56.646,0 110.171,-29.208 145.225,-79.254l268.892,-384.038c25.446,-36.358 64.354,-57.592 105.512,-57.592c79.133,0 141.113,76.583 133.629,165.117l-54.587,647.079c-4.467,53.15 -38.267,97.346 -84.342,110.271c-24.067,6.754 -45.433,22.279 -60.788,44.158l-187.446,266.942c-39.712,56.546 -43.567,135.042 -9.671,196.171l50.958,91.858c52.017,93.733 27.279,217.075 -55.487,276.654l-217.133,156.342c-77.467,55.75 -135.233,140.025 -163.442,238.417l-53.946,188.117c-29.912,104.279 -117.883,173.529 -215.333,169.488l-393.554,-16.283c-97.096,-4.008 -180.408,-79.038 -205.05,-184.65c-12.5,-53.512 -40.546,-100.775 -79.683,-134.246l-125.821,-107.633c-43.921,-37.587 -73.704,-92.325 -83.442,-153.383l-16.417,-103.017c-8.129,-50.983 -47.583,-88.067 -93.658,-88.067c-52.563,0 -95.138,47.842 -95.138,106.912l0,379.775c0,106.121 -76.567,192.125 -170.962,192.125c-94.429,0 -170.963,-86.008 -170.963,-192.125l0.008,-0.004Z" style="fill:none;stroke:#000;stroke-width:79.88px;"/><path d="M323.221,1951.383l-283.896,0" style="fill:none;stroke:#000;stroke-width:79.88px;"/></g></g></g></svg>