<?xml version="1.0" encoding="UTF-8" standalone="no"?><!DOCTYPE svg PUBLIC "-//W3C//DTD SVG 1.1//EN" "http://www.w3.org/Graphics/SVG/1.1/DTD/svg11.dtd"><svg width="100%" height="100%" viewBox="0 0 3417 1984" version="1.1" xmlns="http://www.w3.org/2000/svg" xmlns:xlink="http://www.w3.org/1999/xlink" xml:space="preserve" xmlns:serif="http://www.serif.com/" style="fill-rule:evenodd;clip-rule:evenodd;stroke-miterlimit:2;"><rect id="Artboard1" x="0" y="0" width="3416.667" height="1983.333" style="fill:none;"/><g><g><path d="M2245.913,391.025l389.046,-19.862c39.896,-2.037 79.213,-10.525 116.433,-25.125l402.25,-157.871c33.904,-13.288 72.346,1.308 88.867,33.762l33.237,65.371c17.971,35.329 3.404,78.542 -32.308,95.758l-172.175,82.962c-23.088,11.138 -43.85,26.579 -61.183,45.479l-266.129,290.85c-17.071,18.642 -37.221,34.138 -59.613,45.829l-299.162,156.067c-23.875,12.446 -53.3,2.037 -64.033,-22.654c-7.763,-17.854 -25.85,-28.963 -45.304,-27.829l-850.3,50.221c-4.042,0.233 -8.083,-0.204 -11.979,-1.279l-84.679,-23.525c-16.196,-4.508 -33.354,2.558 -41.671,17.158l-70.925,124.108c-4.362,7.617 -5.846,16.517 -4.187,25.154l78.862,408.908c4.567,23.671 -0.088,48.213 -13.058,68.567l-64.992,102.125c-18.292,28.758 -50.683,45.45 -84.708,43.617l-387.796,-20.821c-30.417,-1.658 -60.95,0.088 -90.987,5.117l-473.55,79.387c-28.758,4.8 -57.229,-10.062 -69.704,-36.408c-12.358,-26.083 -6.079,-57.229 15.442,-76.479l287.329,-257.029c26.638,-23.817 38.587,-59.992 31.404,-95l-8.725,-42.367c-3.896,-18.929 -2.183,-38.588 4.825,-56.588l263.571,-677.338c5,-12.854 14.25,-23.642 26.2,-30.533l165.604,-95.612c13.229,-7.646 23.117,-20.004 27.625,-34.604l14.367,-46.35c6.312,-20.412 22.767,-35.942 43.533,-40.971c102.037,-24.862 416.729,-94.071 655.267,-66.971c288.608,32.8 472.271,137.746 613.304,114.775l0.004,-0Z" style="fill:none;stroke:#000;stroke-width:79.88px;"/><path d="M1419.108,183.283l0,147.604" style="fill:none;stroke:#000;stroke-width:79.88px;"/></g></g></svg>