<?xml version="1.0" encoding="UTF-8" standalone="no"?><!DOCTYPE svg PUBLIC "-//W3C//DTD SVG 1.1//EN" "http://www.w3.org/Graphics/SVG/1.1/DTD/svg11.dtd"><svg width="100%" height="100%" viewBox="0 0 1000 1000" version="1.1" xmlns="http://www.w3.org/2000/svg" xmlns:xlink="http://www.w3.org/1999/xlink" xml:space="preserve" xmlns:serif="http://www.serif.com/" style="fill-rule:evenodd;clip-rule:evenodd;stroke-miterlimit:2;"><g><path d="M633.019,351.846l93.371,-4.767c9.575,-0.489 19.011,-2.526 27.944,-6.03l96.54,-37.889c8.137,-3.189 17.363,0.314 21.328,8.103l7.977,15.689c4.313,8.479 0.817,18.85 -7.754,22.982l-41.322,19.911c-5.541,2.673 -10.524,6.379 -14.684,10.915l-63.871,69.804c-4.097,4.474 -8.933,8.193 -14.307,10.999l-71.799,37.456c-5.73,2.987 -12.792,0.489 -15.368,-5.437c-1.863,-4.285 -6.204,-6.951 -10.873,-6.679l-204.072,12.053c-0.97,0.056 -1.94,-0.049 -2.875,-0.307l-20.323,-5.646c-3.887,-1.082 -8.005,0.614 -10.001,4.118l-17.022,29.786c-1.047,1.828 -1.403,3.964 -1.005,6.037l18.927,98.138c1.096,5.681 -0.021,11.571 -3.134,16.456l-15.598,24.51c-4.39,6.902 -12.164,10.908 -20.33,10.468l-93.071,-4.997c-7.3,-0.398 -14.628,0.021 -21.837,1.228l-113.652,19.053c-6.902,1.152 -13.735,-2.415 -16.729,-8.738c-2.966,-6.26 -1.459,-13.735 3.706,-18.355l68.959,-61.687c6.393,-5.716 9.261,-14.398 7.537,-22.8l-2.094,-10.168c-0.935,-4.543 -0.524,-9.261 1.158,-13.581l63.257,-162.561c1.2,-3.085 3.42,-5.674 6.288,-7.328l39.745,-22.947c3.175,-1.835 5.548,-4.801 6.63,-8.305l3.448,-11.124c1.515,-4.899 5.464,-8.626 10.448,-9.833c24.489,-5.967 100.015,-22.577 157.264,-16.073c69.266,7.872 113.345,33.059 147.193,27.546Z" style="fill:none;stroke:#102129;stroke-width:19.17px;"/><path d="M434.586,301.988l0,35.425" style="fill:none;stroke:#102129;stroke-width:19.17px;"/></g></svg>