<?xml version="1.0" encoding="UTF-8" standalone="no"?><!DOCTYPE svg PUBLIC "-//W3C//DTD SVG 1.1//EN" "http://www.w3.org/Graphics/SVG/1.1/DTD/svg11.dtd"><svg width="100%" height="100%" viewBox="0 0 1000 1000" version="1.1" xmlns="http://www.w3.org/2000/svg" xmlns:xlink="http://www.w3.org/1999/xlink" xml:space="preserve" xmlns:serif="http://www.serif.com/" style="fill-rule:evenodd;clip-rule:evenodd;stroke-miterlimit:2;"><g><path d="M111.768,536.623l13.874,10.727c9.066,7.004 14.375,17.814 14.375,29.276l0,54.895c0,38.233 21.896,73.084 56.339,89.688l31.396,15.126c13.482,6.503 28.257,9.875 43.225,9.875l395.148,0c27.005,0 48.893,-21.888 48.893,-48.893l0,-57.566c0,-36.48 -22.255,-69.278 -56.163,-82.743l-181.112,-71.941c-25.694,-10.201 -43.659,-33.75 -46.706,-61.222l-3.898,-35.094c-1.703,-15.318 6.954,-29.902 21.211,-35.753l75.948,-31.137c13.173,-5.401 27.13,5.843 24.667,19.868l-7.688,43.734c-4.007,22.789 12.58,44.043 35.653,45.687c17.622,1.261 33.883,-9.466 39.668,-26.162l11.662,-33.691c8.673,-25.068 28.407,-44.735 53.501,-53.342l33.074,-11.336c6.962,-2.396 13.415,4.708 10.36,11.411l-34.042,74.737c-7.179,15.744 -6.904,33.875 0.735,49.393l9.734,19.776c12.613,25.602 36.037,44.201 63.835,50.671l71.949,16.729c27.623,6.419 54.527,-13.106 56.99,-41.355l3.306,-38.041c1.586,-18.24 -3.84,-36.396 -15.168,-50.779l-79.905,-101.408c-23.791,-30.194 -61.055,-46.555 -99.38,-43.625l-152.02,11.603c-39.343,3.005 -77.458,15.093 -111.342,35.303l-325.628,194.235c-15.176,9.057 -16.47,30.553 -2.488,41.355Z" style="fill:none;stroke:#102129;stroke-width:19.17px;"/><path d="M228.678,386.347l32.598,56.063" style="fill:none;stroke:#102129;stroke-width:19.17px;"/></g></svg>