<?xml version="1.0" encoding="UTF-8" standalone="no"?><!DOCTYPE svg PUBLIC "-//W3C//DTD SVG 1.1//EN" "http://www.w3.org/Graphics/SVG/1.1/DTD/svg11.dtd"><svg width="100%" height="100%" viewBox="0 0 3463 2305" version="1.1" xmlns="http://www.w3.org/2000/svg" xmlns:xlink="http://www.w3.org/1999/xlink" xml:space="preserve" xmlns:serif="http://www.serif.com/" style="fill-rule:evenodd;clip-rule:evenodd;stroke-miterlimit:2;"><rect id="Artboard1" x="0" y="0" width="3462.5" height="2304.167" style="fill:none;"/><clipPath id="_clip1"><rect x="0" y="0" width="3462.5" height="2304.167"/></clipPath><g clip-path="url(#_clip1)"><g><g><path d="M111.533,1285.929l57.808,44.696c41.942,29.183 59.896,74.225 59.896,121.983l0,228.729c0,159.304 91.233,304.517 234.746,373.7l130.817,63.025c56.175,27.096 117.737,41.146 180.104,41.146l1646.45,0c112.521,0 203.721,-91.2 203.721,-203.721l0,-239.858c0,-152 -92.729,-288.658 -234.012,-344.763l-754.633,-299.754c-107.058,-42.504 -181.913,-140.625 -194.608,-255.092l-16.242,-146.225c-7.096,-63.825 28.975,-124.592 88.379,-148.971l316.45,-129.737c54.887,-22.504 113.042,24.346 102.779,82.783l-32.033,182.225c-16.696,94.954 52.417,183.513 148.554,190.362c73.425,5.254 141.179,-39.442 165.283,-109.008l48.592,-140.379c36.138,-104.45 118.363,-186.396 222.921,-222.258l137.808,-47.233c29.008,-9.983 55.896,19.617 43.167,47.546l-141.842,311.404c-29.912,65.6 -28.767,141.146 3.062,205.804l40.558,82.4c52.554,106.675 150.154,184.171 265.979,211.129l299.787,69.704c115.096,26.746 227.196,-54.608 237.458,-172.313l13.775,-158.504c6.608,-76 -16,-151.65 -63.2,-211.579l-332.938,-422.533c-99.129,-125.808 -254.396,-193.979 -414.083,-181.771l-633.417,48.346c-163.929,12.521 -322.742,62.888 -463.925,147.096l-1356.783,809.313c-63.233,41.904 -72.792,127.304 -10.367,172.312l-0.013,-0.004Z" style="fill:none;stroke:#000;stroke-width:79.88px;"/><path d="M598.658,659.779l135.825,233.596" style="fill:none;stroke:#000;stroke-width:79.88px;"/></g></g></g></svg>