<?xml version="1.0" encoding="UTF-8" standalone="no"?><!DOCTYPE svg PUBLIC "-//W3C//DTD SVG 1.1//EN" "http://www.w3.org/Graphics/SVG/1.1/DTD/svg11.dtd"><svg width="100%" height="100%" viewBox="0 0 3550 2105" version="1.1" xmlns="http://www.w3.org/2000/svg" xmlns:xlink="http://www.w3.org/1999/xlink" xml:space="preserve" xmlns:serif="http://www.serif.com/" style="fill-rule:evenodd;clip-rule:evenodd;stroke-linejoin:round;stroke-miterlimit:2;"><rect id="Artboard1" x="0" y="0" width="3550" height="2104.167" style="fill:none;"/><path d="M3460.175,75.05c-29.408,-19.604 -66.733,-1.508 -68.621,-0.754l-0.754,0.375l-53.917,36.95l-0.754,0.754c-32.8,26.771 -263.542,171.171 -276.738,179.463c-66.358,32.425 -199.446,136.108 -255.625,180.971l18.85,18.85c56.929,-45.621 187.004,-146.287 248.838,-176.45l1.129,-0.754c9.804,-6.408 243.183,-152.317 279.754,-181.35l51.654,-35.817c4.525,-1.883 26.771,-10.558 41.85,-0.375c22.246,14.704 21.867,33.933 19.983,44.112c0,0.375 -7.917,41.471 -24.508,99.533l-33.179,121.404c-2.263,7.163 -49.767,147.796 -135.354,249.592c-0.375,0.754 -50.146,57.308 -80.308,82.946l-2.637,2.263c-34.308,29.408 -114.617,98.025 -235.263,164.008c-6.033,2.638 -78.046,33.179 -170.037,33.179c-6.408,-0.375 -80.683,-5.654 -136.863,-14.325l-10.558,-1.508c-56.929,-8.671 -105.946,-16.588 -142.892,-3.771l-1.129,0.375l-0.754,0.375c-3.017,1.883 -78.046,42.225 -118.388,77.292c-4.525,3.392 -37.704,30.917 -46.375,83.7l0,0.754c-0.375,2.637 -6.787,61.833 -75.783,65.979c-4.146,0.375 -96.896,7.542 -141.762,29.029c-15.833,4.525 -163.254,48.637 -255.625,159.858c-2.637,2.638 -28.275,32.046 -44.488,59.192c-15.079,25.637 -35.442,44.867 -35.817,44.867l-1.129,1.129c-0.375,0.375 -46.375,54.671 -120.65,90.863c-0.375,0 -31.292,15.833 -68.242,26.017c-42.225,11.312 -88.6,30.537 -112.729,45.996c-24.883,16.212 -91.242,69.371 -121.404,104.812l-51.275,50.521l-0.375,0.375c-0.754,0.754 -69.371,73.521 -200.954,109.338l-0.375,0c-0.754,0.375 -64.85,18.85 -105.567,-13.196l-32.8,-39.967c-3.392,-4.525 -23.754,-31.292 -55.421,-31.292c-28.654,0 -59.571,14.325 -63.342,16.213c-3.017,1.129 -45.242,17.721 -111.221,12.067c-8.296,-1.508 -96.517,-15.458 -147.042,-2.263c-10.933,1.508 -102.55,16.213 -176.825,85.583c-1.883,1.508 -44.113,40.721 -63.342,74.275l-0.375,0.754c0,0.375 -17.721,36.571 -60.325,64.471c-40.342,26.771 -66.733,23 -67.113,23l-2.263,-0.375l-2.637,1.508c-0.375,0 -47.129,7.917 -70.504,-28.654l-0.375,-0.754c0,0 -12.442,-17.342 -12.442,-39.587c0,-23.754 13.575,-46.375 34.688,-58.062l10.179,-6.033l127.058,-55.8l242.429,-108.208l86.717,-34.688c0.754,-0.375 62.208,-25.262 133.092,-32.425c9.425,0.375 81.062,2.638 111.6,-3.771c3.771,-0.754 39.212,-6.787 63.342,-15.079c18.096,-6.408 38.079,-3.771 42.225,-3.017c4.9,1.508 34.308,12.821 52.408,41.096l1.129,1.508c4.146,4.9 39.967,46.375 78.8,46.375c35.442,0 51.654,-5.654 53.537,-6.408l115.746,-44.488l1.508,-0.754c1.508,-0.754 37.704,-19.983 43.358,-62.588c3.771,-28.654 9.425,-44.112 10.933,-48.258c6.408,-8.671 50.521,-62.963 114.617,-81.062l0.375,0c0.375,0 32.425,-9.425 91.242,11.312l0.754,0.375l1.129,0c2.638,0.375 62.963,11.688 114.617,-26.771c50.521,-37.704 61.079,-75.404 61.454,-76.912l5.279,-19.983l3.017,-27.9l-0.754,-34.308c0.754,-1.883 3.392,-7.542 14.704,-10.558l1.508,-0.375l62.208,-31.292l133.092,-79.175l83.321,-49.767l1.508,-1.129c0.375,-0.375 48.638,-37.325 114.617,-41.85l70.504,-1.129l0.754,0c7.917,-0.754 78.8,-7.162 83.7,-48.637c1.129,-6.408 3.392,-33.179 -30.917,-56.175c-4.9,-3.771 -3.017,-10.179 -1.508,-13.196l26.017,-24.508l506.725,-426.038c0.754,-0.375 4.525,-3.771 11.313,-9.05l34.308,34.308l13.575,-13.575l-81.062,-81.062l-13.575,13.575l27.9,27.9c-5.279,4.146 -8.296,6.787 -9.425,7.542l-506.725,427.171l-29.408,27.9l-0.754,1.508c-6.033,10.179 -12.442,33.554 7.542,48.638l0.754,0.375c21.492,14.325 20.358,27.9 20.358,29.783l-0.375,1.883c-1.508,14.704 -36.196,24.129 -59.571,25.637l-70.504,1.129l-0.754,0c-70.125,4.525 -121.779,41.85 -128.567,46.75l-82.946,49.767l-131.583,78.421l-59.571,29.783c-23.754,6.788 -31.671,23.754 -32.8,32.8l0,0.754l0.754,35.062l-2.638,24.129l-4.9,17.721c0,0.375 -9.425,31.292 -52.029,62.963c-39.212,29.029 -86.717,23.375 -93.504,22.246c-64.471,-22.621 -101.796,-12.442 -106.321,-11.312c-77.667,21.867 -127.058,88.979 -129.321,91.996l-0.754,1.129l-0.754,1.508c-0.375,0.754 -8.296,18.475 -13.575,56.554c-3.771,27.146 -25.638,40.721 -29.408,42.979l-114.617,44.113c-1.129,0.375 -14.704,4.525 -44.487,4.525c-22.621,0 -49.392,-25.638 -58.438,-36.571c-24.508,-38.079 -65.225,-50.9 -66.733,-51.275l-1.508,-0.375c-1.129,-0.375 -29.408,-5.654 -56.554,3.771c-22.621,7.917 -58.817,13.95 -59.192,14.325l-0.375,0c-28.275,6.033 -105.567,3.017 -106.321,3.017l-1.508,0c-75.029,7.163 -138.746,33.179 -141.383,34.308l-86.717,35.442l-243.183,108.208l-127.433,55.8l-12.067,6.788c-29.029,16.212 -47.883,47.883 -47.883,81.062c0,29.029 14.704,50.9 16.967,54.292c23,35.817 60.325,41.096 81.062,41.096c6.033,0 10.558,-0.375 13.196,-0.754c9.05,1.129 40.342,1.883 83.7,-27.146c46.375,-30.537 66.358,-69.371 68.996,-74.65c17.342,-29.783 58.062,-67.487 58.438,-67.867c70.879,-66.358 162.121,-78.8 163.254,-79.175l1.883,-0.375c46.375,-12.442 136.483,2.262 137.238,2.638l1.129,0c75.783,6.787 122.533,-13.196 124.796,-13.95l0.375,-0.375c0.375,0 28.275,-13.575 52.408,-13.575c19.983,0 34.308,20.358 34.308,20.358l35.442,43.358l1.129,0.754c50.521,41.096 124.796,20.358 130.075,18.85c136.862,-37.325 207.742,-110.846 213.021,-116.5l51.275,-50.9l0.754,-0.754c27.521,-32.425 91.996,-84.454 116.125,-100.287c21.867,-14.325 66.358,-32.046 105.567,-42.979c39.587,-10.558 71.633,-27.146 72.767,-27.521c76.158,-36.95 122.912,-90.487 128.567,-96.896c3.771,-3.392 23.754,-23.375 39.588,-50.146c15.458,-26.017 41.471,-55.421 41.85,-55.421l0.375,-0.375c90.488,-108.962 242.429,-151.562 243.938,-151.942l2.263,-0.754c39.587,-19.604 132.337,-26.771 133.092,-26.771c72.387,-4.525 96.896,-59.946 99.533,-88.979c7.542,-44.488 36.571,-67.112 36.571,-67.112l0.754,-0.754c35.817,-31.292 104.438,-68.996 113.108,-73.521c30.917,-10.179 76.538,-3.017 129.321,5.279l10.558,1.508c59.192,9.05 138.746,14.325 139.5,14.325l0.754,0c101.421,0 178.333,-34.308 181.725,-35.817l0.754,-0.375c123.662,-67.487 208.496,-140.254 240.167,-167.4l2.637,-2.263c31.671,-27.146 81.063,-83.321 83.321,-85.963c90.863,-107.829 138.367,-252.608 140.254,-258.642l33.554,-122.158c16.967,-59.192 24.883,-100.287 25.262,-101.796c6.033,-27.9 -5.279,-53.538 -30.537,-70.504l-0.008,0.017Z" style="fill-rule:nonzero;stroke:#000;stroke-width:2.08px;"/></svg>