<?xml version="1.0" encoding="UTF-8" standalone="no"?><!DOCTYPE svg PUBLIC "-//W3C//DTD SVG 1.1//EN" "http://www.w3.org/Graphics/SVG/1.1/DTD/svg11.dtd"><svg width="100%" height="100%" viewBox="0 0 1000 1000" version="1.1" xmlns="http://www.w3.org/2000/svg" xmlns:xlink="http://www.w3.org/1999/xlink" xml:space="preserve" xmlns:serif="http://www.serif.com/" style="fill-rule:evenodd;clip-rule:evenodd;stroke-linejoin:round;stroke-miterlimit:2;"><path d="M899.442,265.012c-7.058,-4.705 -16.016,-0.362 -16.469,-0.181l-0.181,0.09l-12.94,8.868l-0.181,0.181c-7.872,6.425 -63.25,41.081 -66.417,43.071c-15.926,7.782 -47.867,32.666 -61.35,43.433l4.524,4.524c13.663,-10.949 44.881,-35.109 59.721,-42.348l0.271,-0.181c2.353,-1.538 58.364,-36.556 67.141,-43.524l12.397,-8.596c1.086,-0.452 6.425,-2.534 10.044,-0.09c5.339,3.529 5.248,8.144 4.796,10.587c0,0.09 -1.9,9.953 -5.882,23.888l-7.963,29.137c-0.543,1.719 -11.944,35.471 -32.485,59.902c-0.09,0.181 -12.035,13.754 -19.274,19.907l-0.633,0.543c-8.234,7.058 -27.508,23.526 -56.463,39.362c-1.448,0.633 -18.731,7.963 -40.809,7.963c-1.538,-0.09 -19.364,-1.357 -32.847,-3.438l-2.534,-0.362c-13.663,-2.081 -25.427,-3.981 -34.294,-0.905l-0.271,0.09l-0.181,0.09c-0.724,0.452 -18.731,10.134 -28.413,18.55c-1.086,0.814 -9.049,7.42 -11.13,20.088l0,0.181c-0.09,0.633 -1.629,14.84 -18.188,15.835c-0.995,0.09 -23.255,1.81 -34.023,6.967c-3.8,1.086 -39.181,11.673 -61.35,38.366c-0.633,0.633 -6.786,7.691 -10.677,14.206c-3.619,6.153 -8.506,10.768 -8.596,10.768l-0.271,0.271c-0.09,0.09 -11.13,13.121 -28.956,21.807c-0.09,0 -7.51,3.8 -16.378,6.244c-10.134,2.715 -21.264,7.329 -27.055,11.039c-5.972,3.891 -21.898,16.649 -29.137,25.155l-12.306,12.125l-0.09,0.09c-0.181,0.181 -16.649,17.645 -48.229,26.241l-0.09,0c-0.181,0.09 -15.564,4.524 -25.336,-3.167l-7.872,-9.592c-0.814,-1.086 -5.701,-7.51 -13.301,-7.51c-6.877,0 -14.297,3.438 -15.202,3.891c-0.724,0.271 -10.858,4.253 -26.693,2.896c-1.991,-0.362 -23.164,-3.71 -35.29,-0.543c-2.624,0.362 -24.612,3.891 -42.438,20.54c-0.452,0.362 -10.587,9.773 -15.202,17.826l-0.09,0.181c0,0.09 -4.253,8.777 -14.478,15.473c-9.682,6.425 -16.016,5.52 -16.107,5.52l-0.543,-0.09l-0.633,0.362c-0.09,0 -11.311,1.9 -16.921,-6.877l-0.09,-0.181c0,0 -2.986,-4.162 -2.986,-9.501c0,-5.701 3.258,-11.13 8.325,-13.935l2.443,-1.448l30.494,-13.392l58.183,-25.97l20.812,-8.325c0.181,-0.09 14.93,-6.063 31.942,-7.782c2.262,0.09 19.455,0.633 26.784,-0.905c0.905,-0.181 9.411,-1.629 15.202,-3.619c4.343,-1.538 9.139,-0.905 10.134,-0.724c1.176,0.362 8.234,3.077 12.578,9.863l0.271,0.362c0.995,1.176 9.592,11.13 18.912,11.13c8.506,0 12.397,-1.357 12.849,-1.538l27.779,-10.677l0.362,-0.181c0.362,-0.181 9.049,-4.796 10.406,-15.021c0.905,-6.877 2.262,-10.587 2.624,-11.582c1.538,-2.081 12.125,-15.111 27.508,-19.455l0.09,0c0.09,0 7.782,-2.262 21.898,2.715l0.181,0.09l0.271,0c0.633,0.09 15.111,2.805 27.508,-6.425c12.125,-9.049 14.659,-18.097 14.749,-18.459l1.267,-4.796l0.724,-6.696l-0.181,-8.234c0.181,-0.452 0.814,-1.81 3.529,-2.534l0.362,-0.09l14.93,-7.51l31.942,-19.002l19.997,-11.944l0.362,-0.271c0.09,-0.09 11.673,-8.958 27.508,-10.044l16.921,-0.271l0.181,0c1.9,-0.181 18.912,-1.719 20.088,-11.673c0.271,-1.538 0.814,-7.963 -7.42,-13.482c-1.176,-0.905 -0.724,-2.443 -0.362,-3.167l6.244,-5.882l121.614,-102.249c0.181,-0.09 1.086,-0.905 2.715,-2.172l8.234,8.234l3.258,-3.258l-19.455,-19.455l-3.258,3.258l6.696,6.696c-1.267,0.995 -1.991,1.629 -2.262,1.81l-121.614,102.521l-7.058,6.696l-0.181,0.362c-1.448,2.443 -2.986,8.053 1.81,11.673l0.181,0.09c5.158,3.438 4.886,6.696 4.886,7.148l-0.09,0.452c-0.362,3.529 -8.687,5.791 -14.297,6.153l-16.921,0.271l-0.181,0c-16.83,1.086 -29.227,10.044 -30.856,11.22l-19.907,11.944l-31.58,18.821l-14.297,7.148c-5.701,1.629 -7.601,5.701 -7.872,7.872l0,0.181l0.181,8.415l-0.633,5.791l-1.176,4.253c0,0.09 -2.262,7.51 -12.487,15.111c-9.411,6.967 -20.812,5.61 -22.441,5.339c-15.473,-5.429 -24.431,-2.986 -25.517,-2.715c-18.64,5.248 -30.494,21.355 -31.037,22.079l-0.181,0.271l-0.181,0.362c-0.09,0.181 -1.991,4.434 -3.258,13.573c-0.905,6.515 -6.153,9.773 -7.058,10.315l-27.508,10.587c-0.271,0.09 -3.529,1.086 -10.677,1.086c-5.429,0 -11.854,-6.153 -14.025,-8.777c-5.882,-9.139 -15.654,-12.216 -16.016,-12.306l-0.362,-0.09c-0.271,-0.09 -7.058,-1.357 -13.573,0.905c-5.429,1.9 -14.116,3.348 -14.206,3.438l-0.09,0c-6.786,1.448 -25.336,0.724 -25.517,0.724l-0.362,0c-18.007,1.719 -33.299,7.963 -33.932,8.234l-20.812,8.506l-58.364,25.97l-30.584,13.392l-2.896,1.629c-6.967,3.891 -11.492,11.492 -11.492,19.455c0,6.967 3.529,12.216 4.072,13.03c5.52,8.596 14.478,9.863 19.455,9.863c1.448,0 2.534,-0.09 3.167,-0.181c2.172,0.271 9.682,0.452 20.088,-6.515c11.13,-7.329 15.926,-16.649 16.559,-17.916c4.162,-7.148 13.935,-16.197 14.025,-16.288c17.011,-15.926 38.909,-18.912 39.181,-19.002l0.452,-0.09c11.13,-2.986 32.756,0.543 32.937,0.633l0.271,0c18.188,1.629 29.408,-3.167 29.951,-3.348l0.09,-0.09c0.09,0 6.786,-3.258 12.578,-3.258c4.796,0 8.234,4.886 8.234,4.886l8.506,10.406l0.271,0.181c12.125,9.863 29.951,4.886 31.218,4.524c32.847,-8.958 49.858,-26.603 51.125,-27.96l12.306,-12.216l0.181,-0.181c6.605,-7.782 22.079,-20.269 27.87,-24.069c5.248,-3.438 15.926,-7.691 25.336,-10.315c9.501,-2.534 17.192,-6.515 17.464,-6.605c18.278,-8.868 29.499,-21.717 30.856,-23.255c0.905,-0.814 5.701,-5.61 9.501,-12.035c3.71,-6.244 9.953,-13.301 10.044,-13.301l0.09,-0.09c21.717,-26.151 58.183,-36.375 58.545,-36.466l0.543,-0.181c9.501,-4.705 31.761,-6.425 31.942,-6.425c17.373,-1.086 23.255,-14.387 23.888,-21.355c1.81,-10.677 8.777,-16.107 8.777,-16.107l0.181,-0.181c8.596,-7.51 25.065,-16.559 27.146,-17.645c7.42,-2.443 18.369,-0.724 31.037,1.267l2.534,0.362c14.206,2.172 33.299,3.438 33.48,3.438l0.181,0c24.341,0 42.8,-8.234 43.614,-8.596l0.181,-0.09c29.679,-16.197 50.039,-33.661 57.64,-40.176l0.633,-0.543c7.601,-6.515 19.455,-19.997 19.997,-20.631c21.807,-25.879 33.208,-60.626 33.661,-62.074l8.053,-29.318c4.072,-14.206 5.972,-24.069 6.063,-24.431c1.448,-6.696 -1.267,-12.849 -7.329,-16.921Z" style="fill-rule:nonzero;stroke:#000;stroke-width:0.5px;"/></svg>