<?xml version="1.0" encoding="UTF-8" standalone="no"?><!DOCTYPE svg PUBLIC "-//W3C//DTD SVG 1.1//EN" "http://www.w3.org/Graphics/SVG/1.1/DTD/svg11.dtd"><svg width="100%" height="100%" viewBox="0 0 3500 2255" version="1.1" xmlns="http://www.w3.org/2000/svg" xmlns:xlink="http://www.w3.org/1999/xlink" xml:space="preserve" xmlns:serif="http://www.serif.com/" style="fill-rule:evenodd;clip-rule:evenodd;"><rect id="Artboard1" x="0" y="0" width="3500" height="2254.167" style="fill:none;"/><clipPath id="_clip1"><rect x="0" y="0" width="3500" height="2254.167"/></clipPath><g clip-path="url(#_clip1)"><path id="path5483" d="M1598.817,2137.021c-258.092,-1.458 -329.062,-3.192 -370.675,-9.054c-114.504,-16.138 -236.338,-60.55 -400.367,-145.95c-52.996,-27.588 -154.275,-84.646 -274.892,-154.863c-49.417,-28.767 -108.254,-69.088 -217.963,-149.358c-110.733,-81.021 -161.95,-110.279 -220.717,-126.079c-24.75,-6.654 -39.271,-16.904 -39.271,-27.721c0,-11.971 30.267,-146.192 45.033,-199.688c20.079,-72.754 33.054,-97.146 68.946,-129.6c35.008,-31.654 83.688,-57.279 168.575,-88.737c126.158,-46.754 235.408,-124.921 266.146,-190.429c17.367,-37.012 27.312,-84.825 33.737,-162.192c1.392,-16.75 2.392,-127.537 2.883,-319.817c2.763,-354.733 -42.246,-377.754 64.725,-307.904c43.354,28.308 84.233,47.304 97.625,50.6c29.379,7.233 59.746,-8.763 66.487,-57.754c4.433,-19.217 20.304,-25.492 64.558,-25.529c30.679,-0.025 40.371,1.079 75.458,8.608c105.817,22.704 187.983,96.633 216.304,194.621c11.529,39.887 11.604,41.087 13.388,206.754c0.904,83.833 2.233,156.254 2.958,160.933c2.904,18.721 10.704,27.267 27.537,30.167c8.325,1.433 76.321,0.792 224.9,-2.129c1172.713,-23.054 1280.342,-25.425 1313.5,-28.925c29.708,-3.133 31.013,1.596 59.021,-8.271c41.242,-14.525 69.233,-31.608 95.083,-58.025c44.075,-45.05 55.067,-84.837 38.075,-137.867c-10.887,-33.983 -19.137,-49.217 -55.933,-121.208c-27.333,-53.483 -30.475,-62.858 -33.688,-78.183c-6.963,-33.254 1.046,-64.65 10.5,-82.312c26.808,-35.663 68.008,-44.812 94.183,-23.462c27.912,25.175 27.171,18.992 161.721,195.129c68.817,98.275 129.792,186.375 135.5,195.787c20.55,33.858 33.854,67.767 41.958,106.925c4.283,20.687 4.321,22.258 3.971,165.421c-0.304,125.825 -11.579,529.492 -10.121,1023.004c0.271,89.654 0.892,61.1 -9.004,86.221c-1.767,4.483 -61.058,64.55 -69.971,68.767c-7.363,4.604 -14.638,10.413 -16.171,12.913c-8.071,7.85 -22.696,33.208 -23.713,54.067c-1.283,26.333 0.421,58.804 -10.083,64.487c-6.863,3.713 21.379,-0.15 -149.854,6.917c-108.429,4.475 -397.733,1.958 -642.696,2.654c-244.963,0.696 -477.708,1.55 -517.221,1.904c-39.508,0.354 -188.213,-0.017 -330.446,-0.817l0.008,-0.004Zm1431.271,-18.229c148.896,-1.225 198.554,-4.496 201.392,-5.65c6.296,-2.562 3.029,-33.004 4.196,-58.437c1.596,-34.767 24.075,-60.917 47.983,-74.558c12.883,-7.35 67.229,-65.5 69.942,-76.279c1.113,-4.458 0.821,-98.362 3.696,-361.254c2.646,-241.842 5.758,-526.896 6.921,-633.45c1.162,-106.554 1.542,-202.5 0.846,-213.213c-3.388,-52.187 -18.263,-99.05 -45.879,-144.533c-5.479,-9.021 -64.254,-93.896 -130.617,-188.608c-77.321,-98.45 -161.683,-210.942 -140.183,-179.542c24.271,25.025 -55.221,-68.446 -93.283,-2.504c-17.717,40.433 -16.383,55.904 -13.979,77.071c0.658,5.767 11.629,32.025 20.458,48.75c44.704,84.688 56.742,104.846 67.608,134.146c8.608,23.213 11.738,40.308 11.683,63.825c-0.117,33.013 -8.9,55.329 -34.504,87.267c-39.717,49.55 -76.292,70.963 -157.221,83.542c-35.396,5.5 -59.258,6.142 -729.279,19.517c-820.696,16.387 -828.179,16.496 -840.875,12.5c-7.812,-2.458 -13.638,-5.975 -18.475,-11.158c-12.812,-13.713 -12.904,-14.646 -15.088,-153.75c-3.213,-204.863 -2.917,-196.1 -7.371,-216.575c-17.133,-78.721 -58.95,-137.312 -125.812,-176.3c-47.938,-27.95 -101.792,-40.875 -165.104,-39.617c-40.033,0.796 -41.775,1.633 -46.529,22.321c-2.958,37.575 -30.162,56.558 -44.212,59.242c-5.629,0.808 -12.425,5.112 -40.562,-1.112c-21.863,-4.838 -61.992,-21.783 -116.079,-61.921c-46.562,-34.554 -21.133,-5.25 -23.9,14.25c0.504,2.387 -1.129,129.525 -1.208,279.487c-0.083,155.746 -0.971,288.487 -2.075,309.567c-5.254,100.229 -20.513,169.475 -46.15,209.471c-15.958,24.896 -54.342,62.158 -91.079,88.429c-54.754,39.15 -110.288,67.825 -182.987,94.479c-82.3,30.175 -133.904,59.779 -168.113,96.429c-24.75,26.517 -33.217,44.75 -50.9,109.604c-16.404,60.171 -45.85,190.825 -43.808,194.367c2.062,3.571 12.358,7.708 36.9,14.825c64.613,18.733 94.546,37.221 291.804,180.192c39.45,28.596 82.621,58.054 110.696,75.546c18.879,11.762 144.967,84.479 216.008,124.579c207.737,117.254 370.654,181.004 497.567,194.7c32.154,3.471 62.812,4.762 151.983,6.417c112.662,2.088 1314.717,0.562 1635.596,-2.071l0.004,0l-0.008,0.013Z" style="fill-rule:nonzero;stroke:#000;stroke-width:79px;"/><path d="M3378.221,382.908l-197.108,125.367" style="fill:none;stroke:#000;stroke-width:79.88px;stroke-linecap:round;stroke-linejoin:round;stroke-miterlimit:1.5;"/></g></svg>