<?xml version="1.0" encoding="UTF-8" standalone="no"?><!DOCTYPE svg PUBLIC "-//W3C//DTD SVG 1.1//EN" "http://www.w3.org/Graphics/SVG/1.1/DTD/svg11.dtd"><svg width="100%" height="100%" viewBox="0 0 1000 1000" version="1.1" xmlns="http://www.w3.org/2000/svg" xmlns:xlink="http://www.w3.org/1999/xlink" xml:space="preserve" xmlns:serif="http://www.serif.com/" style="fill-rule:evenodd;clip-rule:evenodd;"><path id="path5483" d="M473.716,747.885c-61.942,-0.35 -78.975,-0.766 -88.962,-2.173c-27.481,-3.873 -56.721,-14.532 -96.088,-35.028c-12.719,-6.621 -37.026,-20.315 -65.974,-37.167c-11.86,-6.904 -25.981,-16.581 -52.311,-35.846c-26.576,-19.445 -38.868,-26.467 -52.972,-30.259c-5.94,-1.597 -9.425,-4.057 -9.425,-6.653c0,-2.873 7.264,-35.086 10.808,-47.925c4.819,-17.461 7.933,-23.315 16.547,-31.104c8.402,-7.597 20.085,-13.747 40.458,-21.297c30.278,-11.221 56.498,-29.981 63.875,-45.703c4.168,-8.883 6.555,-20.358 8.097,-38.926c0.334,-4.02 0.574,-30.609 0.692,-76.756c0.663,-85.136 -10.139,-90.661 15.534,-73.897c10.405,6.794 20.216,11.353 23.43,12.144c7.051,1.736 14.339,-2.103 15.957,-13.861c1.064,-4.612 4.873,-6.118 15.494,-6.127c7.363,-0.006 9.689,0.259 18.11,2.066c25.396,5.449 45.116,23.192 51.913,46.709c2.767,9.573 2.785,9.861 3.213,49.621c0.217,20.12 0.536,37.501 0.71,38.624c0.697,4.493 2.569,6.544 6.609,7.24c1.998,0.344 18.317,0.19 53.976,-0.511c281.451,-5.533 307.282,-6.102 315.24,-6.942c7.13,-0.752 7.443,0.383 14.165,-1.985c9.898,-3.486 16.616,-7.586 22.82,-13.926c10.578,-10.812 13.216,-20.361 9.138,-33.088c-2.613,-8.156 -4.593,-11.812 -13.424,-29.09c-6.56,-12.836 -7.314,-15.086 -8.085,-18.764c-1.671,-7.981 0.251,-15.516 2.52,-19.755c6.434,-8.559 16.322,-10.755 22.604,-5.631c6.699,6.042 6.521,4.558 38.813,46.831c16.516,23.586 31.15,44.73 32.52,46.989c4.932,8.126 8.125,16.264 10.07,25.662c1.028,4.965 1.037,5.342 0.953,39.701c-0.073,30.198 -2.779,127.078 -2.429,245.521c0.065,21.517 0.214,14.664 -2.161,20.693c-0.424,1.076 -14.654,15.492 -16.793,16.504c-1.767,1.105 -3.513,2.499 -3.881,3.099c-1.937,1.884 -5.447,7.97 -5.691,12.976c-0.308,6.32 0.101,14.113 -2.42,15.477c-1.647,0.891 5.131,-0.036 -35.965,1.66c-26.023,1.074 -95.456,0.47 -154.247,0.637c-58.791,0.167 -114.65,0.372 -124.133,0.457c-9.482,0.085 -45.171,-0.004 -79.307,-0.196l0,-0Zm343.505,-4.375c35.735,-0.294 47.653,-1.079 48.334,-1.356c1.511,-0.615 0.727,-7.921 1.007,-14.025c0.383,-8.344 5.778,-14.62 11.516,-17.894c3.092,-1.764 16.135,-15.72 16.786,-18.307c0.267,-1.07 0.197,-23.607 0.887,-86.701c0.635,-58.042 1.382,-126.455 1.661,-152.028c0.279,-25.573 0.37,-48.6 0.203,-51.171c-0.813,-12.525 -4.383,-23.772 -11.011,-34.688c-1.315,-2.165 -15.421,-22.535 -31.348,-45.266c-18.557,-23.628 -38.804,-50.626 -33.644,-43.09c5.825,6.006 -13.253,-16.427 -22.388,-0.601c-4.252,9.704 -3.932,13.417 -3.355,18.497c0.158,1.384 2.791,7.686 4.91,11.7c10.729,20.325 13.618,25.163 16.226,32.195c2.066,5.571 2.817,9.674 2.804,15.318c-0.028,7.923 -2.136,13.279 -8.281,20.944c-9.532,11.892 -18.31,17.031 -37.733,20.05c-8.495,1.32 -14.222,1.474 -175.027,4.684c-196.967,3.933 -198.763,3.959 -201.81,3c-1.875,-0.59 -3.273,-1.434 -4.434,-2.678c-3.075,-3.291 -3.097,-3.515 -3.621,-36.9c-0.771,-49.167 -0.7,-47.064 -1.769,-51.978c-4.112,-18.893 -14.148,-32.955 -30.195,-42.312c-11.505,-6.708 -24.43,-9.81 -39.625,-9.508c-9.608,0.191 -10.026,0.392 -11.167,5.357c-0.71,9.018 -7.239,13.574 -10.611,14.218c-1.351,0.194 -2.982,1.227 -9.735,-0.267c-5.247,-1.161 -14.878,-5.228 -27.859,-14.861c-11.175,-8.293 -5.072,-1.26 -5.736,3.42c0.121,0.573 -0.271,31.086 -0.29,67.077c-0.02,37.379 -0.233,69.237 -0.498,74.296c-1.261,24.055 -4.923,40.674 -11.076,50.273c-3.83,5.975 -13.042,14.918 -21.859,21.223c-13.141,9.396 -26.469,16.278 -43.917,22.675c-19.752,7.242 -32.137,14.347 -40.347,23.143c-5.94,6.364 -7.972,10.74 -12.216,26.305c-3.937,14.441 -11.004,45.798 -10.514,46.648c0.495,0.857 2.966,1.85 8.856,3.558c15.507,4.496 22.691,8.933 70.033,43.246c9.468,6.863 19.829,13.933 26.567,18.131c4.531,2.823 34.792,20.275 51.842,29.899c49.857,28.141 88.957,43.441 119.416,46.728c7.717,0.833 15.075,1.143 36.476,1.54c27.039,0.501 315.532,0.135 392.543,-0.497l0.001,-0Z" style="fill-rule:nonzero;stroke:#000;stroke-width:18.96px;"/><path d="M900.773,326.898l-47.306,30.088" style="fill:none;stroke:#000;stroke-width:19.17px;stroke-linecap:round;stroke-linejoin:round;stroke-miterlimit:1.5;"/></svg>