<?xml version="1.0" encoding="UTF-8" standalone="no"?><!DOCTYPE svg PUBLIC "-//W3C//DTD SVG 1.1//EN" "http://www.w3.org/Graphics/SVG/1.1/DTD/svg11.dtd"><svg width="100%" height="100%" viewBox="0 0 1000 1000" version="1.1" xmlns="http://www.w3.org/2000/svg" xmlns:xlink="http://www.w3.org/1999/xlink" xml:space="preserve" xmlns:serif="http://www.serif.com/" style="fill-rule:evenodd;clip-rule:evenodd;stroke-linejoin:round;"><path id="path2406" d="M473.174,799.799c-95.552,0.226 -187.419,-2.038 -278.092,-2.298c-53.522,-0.154 -59.881,-59.382 -30.296,-75.425c33.237,-18.023 64.499,-33.326 96.946,-52.234c24.366,-14.199 26.287,-53.043 -3.761,-68.322c-31.794,-16.166 -51.441,-26.714 -82.111,-44.085c-7.482,-4.238 -17.357,-15.465 -20.267,-23.61c-24.777,-69.364 -45.278,-133.018 -68.739,-203.293c-7.151,-21.421 2.933,-41.159 26.744,-49.309c18.326,-6.272 26.47,-9.318 46.175,-15.67c17.659,-5.693 40.038,9.132 47.428,28.206c15.453,39.882 26.45,79.497 39.28,118.884c2.928,8.988 15.277,20.218 22.774,20.058c5.936,-0.127 17.314,-5.462 18.386,-12.745c9.358,-63.568 18.481,-127.102 26.535,-190.548c1.641,-12.928 15.084,-23.129 24.445,-27.162c8.747,-3.768 21.731,-1.949 30.087,2.089c8.359,4.04 16.491,12.828 20.058,22.147c5.069,13.246 4.694,28.449 10.029,41.787c6.922,17.306 15.317,35.138 28.206,48.891c8.858,9.451 24.386,19.385 34.232,30.82c6.007,6.976 18.084,19.905 13.405,36.039c-5.53,19.068 -18.616,56.507 -26.953,96.11c-2.074,9.854 3.647,22.489 11.282,27.579c9.079,6.053 26.408,5.687 38.026,2.298c21.811,-6.362 44.235,-14.856 63.934,-27.788c16.795,-11.026 30.757,-24.851 44.294,-39.698c10.431,-11.44 19.719,-24.654 26.326,-38.862c19.301,-41.508 34.658,-84.139 51.816,-127.032c5.129,-12.822 13.951,-29.117 25.072,-35.728c6.748,-4.011 19.978,-9.993 27.579,-10.029c30.863,-0.147 48.136,-0.359 79.395,0.209c8.055,0.147 22.805,9.204 26.535,16.297c16.515,31.407 30.988,56.47 48.473,86.499c4.715,8.097 5.142,26.614 -2.298,35.31c-37.071,43.332 -64.411,77.324 -102.796,120.137c-10.946,12.209 -17.852,33.964 -9.193,47.219c44.643,68.34 81.503,132.238 132.465,201.622c17.109,23.294 -0.082,58.141 -28.624,58.293c-137.897,0.736 -267.227,3.012 -406.796,3.343Z" style="fill:none;stroke:#000;stroke-width:19.17px;"/><path d="M558.385,770.771l0,50.286" style="fill:none;stroke:#000;stroke-width:19.17px;stroke-linecap:round;stroke-miterlimit:1.5;"/></svg>