<?xml version="1.0" encoding="UTF-8" standalone="no"?><!DOCTYPE svg PUBLIC "-//W3C//DTD SVG 1.1//EN" "http://www.w3.org/Graphics/SVG/1.1/DTD/svg11.dtd"><svg width="100%" height="100%" viewBox="0 0 3696 2867" version="1.1" xmlns="http://www.w3.org/2000/svg" xmlns:xlink="http://www.w3.org/1999/xlink" xml:space="preserve" xmlns:serif="http://www.serif.com/" style="fill-rule:evenodd;clip-rule:evenodd;stroke-linejoin:round;"><rect id="Artboard1" x="0" y="0" width="3695.833" height="2866.667" style="fill:none;"/><path id="path2406" d="M1709.058,2665.829c-398.133,0.942 -780.912,-8.492 -1158.717,-9.575c-223.008,-0.642 -249.504,-247.425 -126.233,-314.271c138.488,-75.096 268.746,-138.858 403.942,-217.642c101.525,-59.163 109.529,-221.013 -15.671,-284.675c-132.475,-67.358 -214.338,-111.308 -342.129,-183.688c-31.175,-17.658 -72.321,-64.438 -84.446,-98.375c-103.237,-289.017 -188.658,-554.242 -286.413,-847.054c-29.796,-89.254 12.221,-171.496 111.433,-205.454c76.358,-26.133 110.292,-38.825 192.396,-65.292c73.579,-23.721 166.825,38.05 197.617,117.525c64.388,166.175 110.208,331.238 163.667,495.35c12.2,37.45 63.654,84.242 94.892,83.575c24.733,-0.529 72.142,-22.758 76.608,-53.104c38.992,-264.867 77.004,-529.592 110.562,-793.95c6.838,-53.867 62.85,-96.371 101.854,-113.175c36.446,-15.7 90.546,-8.121 125.362,8.704c34.829,16.833 68.712,53.45 83.575,92.279c21.121,55.192 19.558,118.538 41.787,174.113c28.842,72.108 63.821,146.408 117.525,203.713c36.908,39.379 101.608,80.771 142.633,128.417c25.029,29.067 75.35,82.938 55.854,150.163c-23.042,79.45 -77.567,235.446 -112.304,400.458c-8.642,41.058 15.196,93.704 47.008,114.912c37.829,25.221 110.033,23.696 158.442,9.575c90.879,-26.508 184.312,-61.9 266.392,-115.783c69.979,-45.942 128.154,-103.546 184.558,-165.408c43.463,-47.667 82.162,-102.725 109.692,-161.925c80.421,-172.95 144.408,-350.579 215.9,-529.3c21.371,-53.425 58.129,-121.321 104.467,-148.867c28.117,-16.712 83.242,-41.637 114.912,-41.787c128.596,-0.612 200.567,-1.496 330.812,0.871c33.562,0.612 95.021,38.35 110.562,67.904c68.812,130.863 129.117,235.292 201.971,360.413c19.646,33.737 21.425,110.892 -9.575,147.125c-154.463,180.55 -268.379,322.183 -428.317,500.571c-45.608,50.871 -74.383,141.517 -38.304,196.746c186.013,284.75 339.596,550.992 551.938,840.092c71.287,97.058 -0.342,242.254 -119.267,242.888c-574.571,3.067 -1113.446,12.55 -1694.983,13.929l-0.004,0.004Z" style="fill:none;stroke:#000;stroke-width:79.88px;"/><path d="M2064.104,2544.879l0,209.525" style="fill:none;stroke:#000;stroke-width:79.88px;stroke-linecap:round;stroke-miterlimit:1.5;"/></svg>