<?xml version="1.0" encoding="UTF-8" standalone="no"?><!DOCTYPE svg PUBLIC "-//W3C//DTD SVG 1.1//EN" "http://www.w3.org/Graphics/SVG/1.1/DTD/svg11.dtd"><svg width="100%" height="100%" viewBox="0 0 3334 2292" version="1.1" xmlns="http://www.w3.org/2000/svg" xmlns:xlink="http://www.w3.org/1999/xlink" xml:space="preserve" xmlns:serif="http://www.serif.com/" style="fill-rule:evenodd;clip-rule:evenodd;stroke-miterlimit:2;"><rect id="Artboard1" x="0" y="0" width="3333.333" height="2291.667" style="fill:none;"/><clipPath id="_clip1"><rect x="0" y="0" width="3333.333" height="2291.667"/></clipPath><g clip-path="url(#_clip1)"><g><g><path d="M2912.688,341.475l-125.042,-42.617c-16.512,-5.625 -31.512,-15 -43.808,-27.367l-78.171,-78.779c-32.271,-32.487 -87.833,-12.621 -92.158,32.992l-28.592,302.292c-2.525,26.792 1.696,53.796 12.296,78.529l132.65,309.467c11.971,27.979 16.371,58.625 12.692,88.842c-10.817,89.346 -88.371,155.4 -178.296,151.867l-735.717,-28.846c-34.071,-1.333 -67.062,-12.296 -95.15,-31.583l-553.129,-380.025c-58.121,-39.95 -138.308,-13.592 -161.492,52.967l-96.992,278.854c-5.662,16.296 -26.142,21.454 -38.867,9.808l-202.454,-184.967c-49.612,-45.321 -128.287,-34.179 -163.333,23.183l-393.729,644.388c-17.233,28.196 -10.529,64.792 15.575,85.054l140.075,108.779c22.208,17.271 30.792,46.871 21.2,73.338l-23.725,65.404c-9.662,26.717 -0.829,56.608 21.813,73.771l298.792,226.537c22.679,17.163 55.525,6.454 63.675,-20.804l255.708,-854.667c5.446,-18.208 28.846,-23.183 41.246,-8.762l147.033,171.3c36.85,42.942 90.608,67.642 147.217,67.642l238.546,0c30.033,0 54.408,24.375 54.408,54.446l0,76.8c0,30.071 24.375,54.446 54.446,54.446l398.2,0c43.521,0 78.783,-35.262 78.783,-78.783l0,-75.896c0,-41.033 33.279,-74.312 74.313,-74.312l150.533,0c34.688,0 64.792,24.012 72.471,57.871l28.017,123.383c7.283,31.979 34.65,55.454 67.425,57.688l439.808,30.142c30,2.054 59.421,-8.904 80.838,-30.033l130.558,-128.971c22.896,-22.608 34.146,-54.479 30.504,-86.463l-122.267,-1072.658c-4.975,-43.446 -34.504,-80.154 -75.896,-94.25l-0.004,-0.004Z" style="fill:none;stroke:#000;stroke-width:79.88px;"/><path d="M2949.538,1125.796l259.925,-30.938" style="fill:none;stroke:#000;stroke-width:79.88px;"/></g></g></g></svg>