<?xml version="1.0" encoding="UTF-8" standalone="no"?><!DOCTYPE svg PUBLIC "-//W3C//DTD SVG 1.1//EN" "http://www.w3.org/Graphics/SVG/1.1/DTD/svg11.dtd"><svg width="100%" height="100%" viewBox="0 0 1000 1000" version="1.1" xmlns="http://www.w3.org/2000/svg" xmlns:xlink="http://www.w3.org/1999/xlink" xml:space="preserve" xmlns:serif="http://www.serif.com/" style="fill-rule:evenodd;clip-rule:evenodd;stroke-miterlimit:2;"><g><path d="M805.045,298.954l-30.01,-10.228c-3.963,-1.35 -7.563,-3.6 -10.514,-6.568l-18.761,-18.907c-7.745,-7.797 -21.08,-3.029 -22.118,7.918l-6.862,72.55c-0.606,6.43 0.407,12.911 2.951,18.847l31.836,74.272c2.873,6.715 3.929,14.07 3.046,21.322c-2.596,21.443 -21.209,37.296 -42.791,36.448l-176.572,-6.923c-8.177,-0.32 -16.095,-2.951 -22.836,-7.58l-132.751,-91.206c-13.949,-9.588 -33.194,-3.262 -38.758,12.712l-23.278,66.925c-1.359,3.911 -6.274,5.149 -9.328,2.354l-48.589,-44.392c-11.907,-10.877 -30.789,-8.203 -39.2,5.564l-94.495,154.653c-4.136,6.767 -2.527,15.55 3.738,20.413l33.618,26.107c5.33,4.145 7.39,11.249 5.088,17.601l-5.694,15.697c-2.319,6.412 -0.199,13.586 5.235,17.705l71.71,54.369c5.443,4.119 13.326,1.549 15.282,-4.993l61.37,-205.12c1.307,-4.37 6.923,-5.564 9.899,-2.103l35.288,41.112c8.844,10.306 21.746,16.234 35.332,16.234l57.251,0c7.208,0 13.058,5.85 13.058,13.067l0,18.432c0,7.217 5.85,13.067 13.067,13.067l95.568,0c10.445,0 18.908,-8.463 18.908,-18.908l0,-18.215c0,-9.848 7.987,-17.835 17.835,-17.835l36.128,0c8.325,0 15.55,5.763 17.393,13.889l6.724,29.612c1.748,7.675 8.316,13.309 16.182,13.845l105.554,7.234c7.2,0.493 14.261,-2.137 19.401,-7.208l31.334,-30.953c5.495,-5.426 8.195,-13.075 7.321,-20.751l-29.344,-257.438c-1.194,-10.427 -8.281,-19.237 -18.215,-22.62Z" style="fill:none;stroke:#102129;stroke-width:19.17px;"/><path d="M813.889,487.191l62.382,-7.425" style="fill:none;stroke:#102129;stroke-width:19.17px;"/></g></svg>