<?xml version="1.0" encoding="UTF-8" standalone="no"?><!DOCTYPE svg PUBLIC "-//W3C//DTD SVG 1.1//EN" "http://www.w3.org/Graphics/SVG/1.1/DTD/svg11.dtd"><svg width="100%" height="100%" viewBox="0 0 1000 1000" version="1.1" xmlns="http://www.w3.org/2000/svg" xmlns:xlink="http://www.w3.org/1999/xlink" xml:space="preserve" xmlns:serif="http://www.serif.com/" style="fill-rule:evenodd;clip-rule:evenodd;stroke-miterlimit:2;"><g><path d="M147.944,687.504l0,-19.802c0,-7.826 -3.797,-15.161 -10.194,-19.664l-10.073,-7.077c-9.677,-6.819 -12.957,-19.681 -7.714,-30.296l134.496,-272.711c3.461,-7.008 0.861,-15.488 -5.923,-19.371l-16.771,-9.582c-9.152,-5.235 -10.047,-18.088 -1.696,-24.537l34.98,-26.999c10.521,-8.127 25.785,-0.62 25.785,12.673l0,126.446c0,12.707 7.593,24.184 19.285,29.16l29.789,12.673c9.694,4.124 16.702,12.794 18.708,23.133c2.91,15.075 16.22,25.888 31.571,25.665l36.108,-0.534c18.94,-0.275 36.478,9.935 45.587,26.543c5.545,10.108 14.326,18.037 24.941,22.522l61.6,26.026c12.914,5.458 26.767,8.368 40.791,8.575l146.437,2.135c12.062,0.181 22.436,8.584 25.113,20.353l12.699,55.883c1.412,6.233 9.247,8.308 13.568,3.599l15.712,-17.141c2.505,-2.738 6.586,-3.366 9.806,-1.507l22.815,13.172c1.257,0.723 2.686,1.093 4.133,1.059l22.522,-0.499c8.205,-0.181 13.284,8.859 8.876,15.772l-15.006,23.504c-9.892,15.497 -26.999,24.873 -45.389,24.873l-648.51,0c-13.284,0 -24.046,-10.762 -24.046,-24.046Z" style="fill:none;stroke:#102129;stroke-width:19.17px;"/><path d="M578.671,675.83l0,70.072" style="fill:none;stroke:#102129;stroke-width:19.17px;"/></g></svg>