<?xml version="1.0" encoding="UTF-8" standalone="no"?><!DOCTYPE svg PUBLIC "-//W3C//DTD SVG 1.1//EN" "http://www.w3.org/Graphics/SVG/1.1/DTD/svg11.dtd"><svg width="100%" height="100%" viewBox="0 0 3342 2205" version="1.1" xmlns="http://www.w3.org/2000/svg" xmlns:xlink="http://www.w3.org/1999/xlink" xml:space="preserve" xmlns:serif="http://www.serif.com/" style="fill-rule:evenodd;clip-rule:evenodd;stroke-miterlimit:2;"><rect id="Artboard1" x="0" y="0" width="3341.667" height="2204.167" style="fill:none;"/><clipPath id="_clip1"><rect x="0" y="0" width="3341.667" height="2204.167"/></clipPath><g clip-path="url(#_clip1)"><g><g><path d="M208.1,1902.1l0,-82.508c0,-32.608 -15.821,-63.171 -42.475,-81.933l-41.971,-29.488c-40.321,-28.412 -53.987,-82.004 -32.142,-126.233l560.4,-1136.296c14.421,-29.2 3.587,-64.533 -24.679,-80.712l-69.879,-39.925c-38.133,-21.812 -41.862,-75.367 -7.067,-102.237l145.75,-112.496c43.838,-33.862 107.438,-2.583 107.438,52.804l0,526.858c0,52.946 31.638,100.767 80.354,121.5l124.121,52.804c40.392,17.183 69.592,53.308 77.95,96.388c12.125,62.812 67.583,107.867 131.546,106.938l150.45,-2.225c78.917,-1.146 151.992,41.396 189.946,110.596c23.104,42.117 59.692,75.154 103.921,93.842l256.667,108.442c53.808,22.742 111.529,34.867 169.962,35.729l610.154,8.896c50.258,0.754 93.483,35.767 104.637,84.804l52.912,232.846c5.883,25.971 38.529,34.617 56.533,14.996l65.467,-71.421c10.438,-11.408 27.442,-14.025 40.858,-6.279l95.063,54.883c5.237,3.012 11.192,4.554 17.221,4.412l93.842,-2.079c34.188,-0.754 55.35,36.913 36.983,65.717l-62.525,97.933c-41.217,64.571 -112.496,103.637 -189.121,103.637l-2702.125,0c-55.35,0 -100.192,-44.842 -100.192,-100.192Z" style="fill:none;stroke:#000;stroke-width:79.88px;"/><path d="M2002.796,1853.458l0,291.967" style="fill:none;stroke:#000;stroke-width:79.88px;"/></g></g></g></svg>