<?xml version="1.0" encoding="UTF-8" standalone="no"?><!DOCTYPE svg PUBLIC "-//W3C//DTD SVG 1.1//EN" "http://www.w3.org/Graphics/SVG/1.1/DTD/svg11.dtd"><svg width="100%" height="100%" viewBox="0 0 3630 1755" version="1.1" xmlns="http://www.w3.org/2000/svg" xmlns:xlink="http://www.w3.org/1999/xlink" xml:space="preserve" xmlns:serif="http://www.serif.com/" style="fill-rule:evenodd;clip-rule:evenodd;stroke-miterlimit:10;"><rect id="Artboard1" x="0" y="0" width="3629.167" height="1754.167" style="fill:none;"/><clipPath id="_clip1"><rect x="0" y="0" width="3629.167" height="1754.167"/></clipPath><g clip-path="url(#_clip1)"><path d="M1824.725,559.267c0,0 294.35,217.3 342.233,251.642c47.417,34.342 76.05,73.421 74.642,99.471c-1.408,25.458 -21.596,59.804 -43.658,76.975c-21.596,17.171 -59.621,40.854 -74.642,66.908c-15.021,25.458 -27.229,46.183 -28.638,111.317c-1.408,65.129 -1.408,116.646 -12.204,155.721c-8.921,31.975 -40.842,105.987 -150.225,153.946c-106.096,46.183 -139.429,35.525 -227.217,32.567c-81.217,-2.962 -161.492,-59.804 -161.492,-59.804c0,0 -418.283,-299.604 -458.658,-328.617c-40.842,-29.012 -106.096,-44.408 -158.675,-29.012c-54.458,15.396 -68.542,29.604 -99.054,58.025c-25.35,23.683 -62.438,59.804 -97.646,65.129c-35.208,5.329 -79.338,2.367 -114.079,-17.171c-31.454,-17.763 -73.233,-72.238 -93.421,-99.471c-20.188,-27.238 -63.375,-63.354 -124.875,-65.129c-50.233,-1.775 -160.554,13.617 -223.929,108.354c-26.287,39.079 -45.538,69.275 -45.538,144.471c0,55.658 40.375,130.262 79.338,130.854c79.337,1.775 60.092,-13.025 120.65,-15.396c74.642,-2.963 106.096,7.104 147.879,27.238c41.783,20.133 157.267,55.658 218.767,56.25c81.683,1.183 573.204,-11.842 605.6,-11.842c80.746,-0.592 146.471,20.725 195.292,47.958c48.825,27.238 149.287,87.038 190.129,102.433c40.842,15.396 114.079,51.513 225.337,49.737c111.263,-1.775 310.779,-17.171 423.45,-68.683c112.671,-51.513 467.108,-203.683 567.571,-258.746c100.463,-55.067 305.617,-182.367 347.396,-217.3c26.287,-21.908 42.25,-34.342 43.658,-65.129c1.408,-30.787 -38.025,-65.129 -58.213,-76.975c-20.188,-11.842 -34.742,-19.537 -59.621,-46.183c-27.229,-29.013 -39.904,-62.171 -39.904,-98.287c0,-66.908 35.208,-116.05 77.929,-117.829c27.229,-1.183 110.321,1.775 133.325,-3.554c23.004,-5.329 56.804,-20.725 74.642,-56.25c17.838,-35.525 38.496,-88.225 45.067,-101.25c11.267,-21.908 7.979,-34.342 -12.204,-46.183c-20.188,-11.842 -31.454,-30.788 -21.596,-66.908c9.858,-36.117 29.108,-135 32.862,-161.05c3.288,-24.275 -1.408,-56.25 -30.046,-56.25c-36.617,0 -922.95,-42.629 -1032.804,-46.183c-111.729,-2.367 -1633.238,-76.975 -1812.1,-90c-56.333,-4.146 -69.479,38.487 -65.725,60.396c7.042,40.854 86.85,107.763 135.671,143.879c48.825,36.117 66.662,44.408 124.875,47.958c58.212,3.554 92.483,-17.171 124.875,-42.629c32.392,-25.458 99.054,-73.421 177.925,-95.921c55.867,-15.987 158.675,-13.025 198.108,-5.329c55.867,11.25 111.263,40.854 161.492,76.975c50.233,36.117 377.442,278.879 377.442,278.879l0.008,-0Z" style="fill:none;fill-rule:nonzero;stroke:#000;stroke-width:79.88px;"/><path d="M1593.758,268.754l-131.296,131.296" style="fill:none;stroke:#000;stroke-width:79.88px;stroke-linecap:round;stroke-linejoin:round;stroke-miterlimit:1.5;"/></g></svg>