<?xml version="1.0" encoding="UTF-8" standalone="no"?><!DOCTYPE svg PUBLIC "-//W3C//DTD SVG 1.1//EN" "http://www.w3.org/Graphics/SVG/1.1/DTD/svg11.dtd"><svg width="100%" height="100%" viewBox="0 0 1000 1000" version="1.1" xmlns="http://www.w3.org/2000/svg" xmlns:xlink="http://www.w3.org/1999/xlink" xml:space="preserve" xmlns:serif="http://www.serif.com/" style="fill-rule:evenodd;clip-rule:evenodd;stroke-miterlimit:10;"><path d="M505.934,422.224c0,0 70.644,52.152 82.136,60.394c11.38,8.242 18.252,17.621 17.914,23.873c-0.338,6.11 -5.183,14.353 -10.478,18.474c-5.183,4.121 -14.309,9.805 -17.914,16.058c-3.605,6.11 -6.535,11.084 -6.873,26.716c-0.338,15.631 -0.338,27.995 -2.929,37.373c-2.141,7.674 -9.802,25.437 -36.054,36.947c-25.463,11.084 -33.463,8.526 -54.532,7.816c-19.492,-0.711 -38.758,-14.353 -38.758,-14.353c0,0 -100.388,-71.905 -110.078,-78.868c-9.802,-6.963 -25.463,-10.658 -38.082,-6.963c-13.07,3.695 -16.45,7.105 -23.773,13.926c-6.084,5.684 -14.985,14.353 -23.435,15.631c-8.45,1.279 -19.041,0.568 -27.379,-4.121c-7.549,-4.263 -17.576,-17.337 -22.421,-23.873c-4.845,-6.537 -15.21,-15.205 -29.97,-15.631c-12.056,-0.426 -38.533,3.268 -53.743,26.005c-6.309,9.379 -10.929,16.626 -10.929,34.673c0,13.358 9.69,31.263 19.041,31.405c19.041,0.426 14.422,-3.126 28.956,-3.695c17.914,-0.711 25.463,1.705 35.491,6.537c10.028,4.832 37.744,13.358 52.504,13.5c19.604,0.284 137.569,-2.842 145.344,-2.842c19.379,-0.142 35.153,4.974 46.87,11.51c11.718,6.537 35.829,20.889 45.631,24.584c9.802,3.695 27.379,12.363 54.081,11.937c26.703,-0.426 74.587,-4.121 101.628,-16.484c27.041,-12.363 112.106,-48.884 136.217,-62.099c24.111,-13.216 73.348,-43.768 83.375,-52.152c6.309,-5.258 10.14,-8.242 10.478,-15.631c0.338,-7.389 -9.126,-15.631 -13.971,-18.474c-4.845,-2.842 -8.338,-4.689 -14.309,-11.084c-6.535,-6.963 -9.577,-14.921 -9.577,-23.589c0,-16.058 8.45,-27.852 18.703,-28.279c6.535,-0.284 26.477,0.426 31.998,-0.853c5.521,-1.279 13.633,-4.974 17.914,-13.5c4.281,-8.526 9.239,-21.174 10.816,-24.3c2.704,-5.258 1.915,-8.242 -2.929,-11.084c-4.845,-2.842 -7.549,-7.389 -5.183,-16.058c2.366,-8.668 6.986,-32.4 7.887,-38.652c0.789,-5.826 -0.338,-13.5 -7.211,-13.5c-8.788,0 -221.508,-10.231 -247.873,-11.084c-26.815,-0.568 -391.977,-18.474 -434.904,-21.6c-13.52,-0.995 -16.675,9.237 -15.774,14.495c1.69,9.805 20.844,25.863 32.561,34.531c11.718,8.668 15.999,10.658 29.97,11.51c13.971,0.853 22.196,-4.121 29.97,-10.231c7.774,-6.11 23.773,-17.621 42.702,-23.021c13.408,-3.837 38.082,-3.126 47.546,-1.279c13.408,2.7 26.703,9.805 38.758,18.474c12.056,8.668 90.586,66.931 90.586,66.931Z" style="fill:none;fill-rule:nonzero;stroke:#000;stroke-width:19.17px;"/><path d="M450.502,352.501l-31.511,31.511" style="fill:none;stroke:#000;stroke-width:19.17px;stroke-linecap:round;stroke-linejoin:round;stroke-miterlimit:1.5;"/></svg>