<?xml version="1.0" encoding="UTF-8" standalone="no"?><!DOCTYPE svg PUBLIC "-//W3C//DTD SVG 1.1//EN" "http://www.w3.org/Graphics/SVG/1.1/DTD/svg11.dtd"><svg width="100%" height="100%" viewBox="0 0 3125 2559" version="1.1" xmlns="http://www.w3.org/2000/svg" xmlns:xlink="http://www.w3.org/1999/xlink" xml:space="preserve" xmlns:serif="http://www.serif.com/" style="fill-rule:evenodd;clip-rule:evenodd;stroke-miterlimit:2;"><rect id="Artboard1" x="0" y="0" width="3125" height="2558.333" style="fill:none;"/><clipPath id="_clip1"><rect x="0" y="0" width="3125" height="2558.333"/></clipPath><g clip-path="url(#_clip1)"><g><path d="M211.004,1386.692c0,0 169.904,-491.787 286.146,-523.117c116.246,-31.292 460.529,62.621 737.717,67.067c277.221,4.479 657.246,49.212 751.158,0c93.879,-49.179 111.762,-205.642 71.513,-295.075c-40.217,-89.396 -8.925,-143.054 49.179,-214.6c58.142,-71.546 419.688,-323.275 473.658,-311.433c53.938,11.879 4.758,400.862 112.075,382.979c68.696,-11.462 73.246,-131.075 67.621,-215.608c-3.021,-45.808 33.375,-84.533 79.254,-85.196l123.017,-1.704c61.892,-0.867 109.992,54.771 98.775,115.687c-24,130.379 -97.871,343.246 -323.971,499.775c-348.733,241.45 -701.946,308.513 -938.912,317.442c-151.358,5.696 -262.567,-5 -323.204,-13.475c-28.688,-3.996 -57.1,9.55 -70.992,34.975c-15.454,28.237 -40.529,58.904 -75.263,54.529c-62.725,-7.954 -110.304,-35.425 -185.117,-78.629c-74.812,-43.171 -463.204,-122.6 -539.196,-64.458c-76.025,58.137 -219.083,295.108 -205.675,357.692c13.404,62.583 80.471,84.954 71.546,187.792c-8.958,102.838 -44.733,219.083 -89.433,232.488c-44.7,13.404 -98.358,53.658 -93.879,134.129c4.446,80.471 -8.958,259.3 71.513,304.033c80.504,44.7 138.613,125.171 80.504,178.829c-58.138,53.658 -268.192,5.521 -299.588,-49.179c-31.396,-54.667 -4.446,-129.65 0,-228.008c4.479,-98.392 -20.979,-552.742 71.546,-786.929l0.008,-0.004Z" style="fill:none;stroke:#000;stroke-width:79.88px;"/><path d="M45.579,1400.133l254.854,93.879" style="fill:none;stroke:#000;stroke-width:79.88px;"/></g></g></svg>