<?xml version="1.0" encoding="UTF-8" standalone="no"?><!DOCTYPE svg PUBLIC "-//W3C//DTD SVG 1.1//EN" "http://www.w3.org/Graphics/SVG/1.1/DTD/svg11.dtd"><svg width="100%" height="100%" viewBox="0 0 1000 1000" version="1.1" xmlns="http://www.w3.org/2000/svg" xmlns:xlink="http://www.w3.org/1999/xlink" xml:space="preserve" xmlns:serif="http://www.serif.com/" style="fill-rule:evenodd;clip-rule:evenodd;stroke-miterlimit:2;"><g><path d="M177.641,522.806c0,0 40.777,-118.029 68.675,-125.548c27.899,-7.51 110.527,15.029 177.052,16.096c66.533,1.075 157.739,11.811 180.278,0c22.531,-11.803 26.823,-49.354 17.163,-70.818c-9.652,-21.455 -2.142,-34.333 11.803,-51.504c13.954,-17.171 100.725,-77.586 113.678,-74.744c12.945,2.851 1.142,96.207 26.898,91.915c16.487,-2.751 17.579,-31.458 16.229,-51.746c-0.725,-10.994 8.01,-20.288 19.021,-20.447l29.524,-0.409c14.854,-0.208 26.398,13.145 23.706,27.765c-5.76,31.291 -23.489,82.379 -77.753,119.946c-83.696,57.948 -168.467,74.043 -225.339,76.186c-36.326,1.367 -63.016,-1.2 -77.569,-3.234c-6.885,-0.959 -13.704,2.292 -17.038,8.394c-3.709,6.777 -9.727,14.137 -18.063,13.087c-15.054,-1.909 -26.473,-8.502 -44.428,-18.871c-17.955,-10.361 -111.169,-29.424 -129.407,-15.47c-18.246,13.953 -52.58,70.826 -49.362,85.846c3.217,15.02 19.313,20.389 17.171,45.07c-2.15,24.681 -10.736,52.58 -21.464,55.797c-10.728,3.217 -23.606,12.878 -22.531,32.191c1.067,19.313 -2.15,62.232 17.163,72.968c19.321,10.728 33.267,30.041 19.321,42.919c-13.953,12.878 -64.366,1.325 -71.901,-11.803c-7.535,-13.12 -1.067,-31.116 0,-54.722c1.075,-23.614 -5.035,-132.658 17.171,-188.863Z" style="fill:none;stroke:#102129;stroke-width:19.17px;"/><path d="M137.939,526.032l61.165,22.531" style="fill:none;stroke:#102129;stroke-width:19.17px;"/></g></svg>