<?xml version="1.0" encoding="UTF-8" standalone="no"?><!DOCTYPE svg PUBLIC "-//W3C//DTD SVG 1.1//EN" "http://www.w3.org/Graphics/SVG/1.1/DTD/svg11.dtd"><svg width="100%" height="100%" viewBox="0 0 1000 1000" version="1.1" xmlns="http://www.w3.org/2000/svg" xmlns:xlink="http://www.w3.org/1999/xlink" xml:space="preserve" xmlns:serif="http://www.serif.com/" style="fill-rule:evenodd;clip-rule:evenodd;stroke-miterlimit:2;"><g><path d="M620.278,474.663c0,0 115.734,37.361 146.803,52.891c19.926,9.958 43.403,26.56 57.7,37.199c8.537,6.352 19.427,8.565 29.785,6.135l2.606,-0.615c7.445,-1.749 15.056,2.168 17.959,9.242c3.264,7.973 -0.567,17.083 -8.554,20.321l-83.865,34.007c-13.739,5.57 -29.351,3.887 -41.595,-4.488c-10.1,-6.909 -22.617,-9.325 -34.572,-6.673l-49.114,10.924c-9.348,2.081 -19.13,0.576 -27.427,-4.21l-49.296,-28.43c-13.81,-7.97 -31.083,-6.691 -43.567,3.222c-12.172,9.663 -28.902,11.141 -42.592,3.775c-19.251,-10.365 -48.712,-26.746 -80.511,-46.288c-35.746,-21.96 -59.937,-46.148 -72.531,-60.439c-6.524,-7.405 -8.739,-17.618 -5.89,-27.068c2.342,-7.77 1.248,-16.123 -2.95,-23.071c-10.124,-16.765 -32.437,-48.733 -68.536,-75.167c-37.522,-27.481 -79.562,-46.504 -99.619,-54.814c-6.752,-2.79 -10.235,-10.226 -8.127,-17.218c2.372,-7.869 10.881,-12.099 18.577,-9.226c31.863,11.869 110.306,39.855 161.011,47.434c55.504,8.293 205.836,74.494 248.184,93.474c6.878,3.086 11.372,9.836 11.593,17.372c0.238,8.289 5.659,15.541 13.544,18.119l10.985,3.592Z" style="fill:none;stroke:#102129;stroke-width:19.17px;"/><path d="M754.956,550.404l22.708,-47.71" style="fill:none;stroke:#102129;stroke-width:19.17px;"/></g></svg>