<?xml version="1.0" encoding="UTF-8" standalone="no"?><!DOCTYPE svg PUBLIC "-//W3C//DTD SVG 1.1//EN" "http://www.w3.org/Graphics/SVG/1.1/DTD/svg11.dtd"><svg width="100%" height="100%" viewBox="0 0 3242 1659" version="1.1" xmlns="http://www.w3.org/2000/svg" xmlns:xlink="http://www.w3.org/1999/xlink" xml:space="preserve" xmlns:serif="http://www.serif.com/" style="fill-rule:evenodd;clip-rule:evenodd;stroke-miterlimit:2;"><rect id="Artboard1" x="0" y="0" width="3241.667" height="1658.333" style="fill:none;"/><g><path d="M2055.325,848.596c0,0 482.225,155.671 611.679,220.379c83.025,41.492 180.846,110.667 240.417,154.996c35.571,26.467 80.946,35.688 124.104,25.562l10.858,-2.562c31.021,-7.287 62.733,9.033 74.829,38.508c13.6,33.221 -2.362,71.179 -35.642,84.671l-349.438,141.696c-57.246,23.208 -122.296,16.196 -173.312,-18.7c-42.083,-28.787 -94.238,-38.854 -144.05,-27.804l-204.642,45.517c-38.95,8.671 -79.708,2.4 -114.279,-17.542l-205.4,-118.458c-57.542,-33.208 -129.512,-27.879 -181.529,13.425c-50.717,40.262 -120.425,46.421 -177.467,15.729c-80.212,-43.188 -202.967,-111.442 -335.462,-192.867c-148.942,-91.5 -249.738,-192.283 -302.213,-251.829c-27.183,-30.854 -36.412,-73.408 -24.542,-112.783c9.758,-32.375 5.2,-67.179 -12.292,-96.129c-42.183,-69.854 -135.154,-203.054 -285.567,-313.196c-156.342,-114.504 -331.508,-193.767 -415.079,-228.392c-28.133,-11.625 -42.646,-42.608 -33.863,-71.742c9.883,-32.788 45.338,-50.412 77.404,-38.442c132.763,49.454 459.608,166.062 670.879,197.642c231.267,34.554 857.65,310.392 1034.1,389.475c28.658,12.858 47.383,40.983 48.304,72.383c0.992,34.537 23.579,64.754 56.433,75.496l45.771,14.967l-0.004,0Z" style="fill:none;stroke:#000;stroke-width:79.88px;"/><path d="M2616.483,1164.183l94.617,-198.792" style="fill:none;stroke:#000;stroke-width:79.88px;"/></g></svg>