<?xml version="1.0" encoding="UTF-8" standalone="no"?><!DOCTYPE svg PUBLIC "-//W3C//DTD SVG 1.1//EN" "http://www.w3.org/Graphics/SVG/1.1/DTD/svg11.dtd"><svg width="100%" height="100%" viewBox="0 0 3363 1563" version="1.1" xmlns="http://www.w3.org/2000/svg" xmlns:xlink="http://www.w3.org/1999/xlink" xml:space="preserve" xmlns:serif="http://www.serif.com/" style="fill-rule:evenodd;clip-rule:evenodd;stroke-miterlimit:2;"><rect id="Artboard1" x="0" y="0" width="3362.5" height="1562.5" style="fill:none;"/><clipPath id="_clip1"><rect x="0" y="0" width="3362.5" height="1562.5"/></clipPath><g clip-path="url(#_clip1)"><g><path d="M1537.662,338.796c16.271,32.925 56.988,45.246 88.842,26.9l420.375,-242.729c142.913,-82.508 323.704,-57.221 438.487,61.404l119.042,123.033c25.633,26.479 65.971,32.158 97.9,13.7c33.504,-19.304 75.983,-12.05 101.158,17.308l451.996,526.946c42.292,49.354 39.258,122.996 -6.983,168.625l-164.096,161.946c-39.679,39.146 -100.546,46.975 -148.825,19.075c-177.412,-102.504 -600.817,-340.396 -821.138,-406.979c-186.433,-56.375 -387.142,-75.642 -502.575,-82.204c-58.446,-3.338 -113.442,27.208 -141.3,78.671c-25.521,47.05 -74.067,77.058 -127.562,78.825l-74.029,2.454c-25.675,0.846 -50.733,8.25 -72.763,21.529l-838.829,505.338c-93.179,56.108 -213.988,29.279 -274.621,-61.058c-65.854,-98.05 -34.921,-231.371 67.387,-290.392l1298.692,-749.333c31.854,-18.383 72.571,-6.062 88.842,26.942Z" style="fill:none;stroke:#000;stroke-width:79.88px;"/><path d="M721.092,560.379l144.908,233.558" style="fill:none;stroke:#000;stroke-width:79.88px;"/></g></g></svg>