<?xml version="1.0" encoding="UTF-8" standalone="no"?><!DOCTYPE svg PUBLIC "-//W3C//DTD SVG 1.1//EN" "http://www.w3.org/Graphics/SVG/1.1/DTD/svg11.dtd"><svg width="100%" height="100%" viewBox="0 0 1000 1000" version="1.1" xmlns="http://www.w3.org/2000/svg" xmlns:xlink="http://www.w3.org/1999/xlink" xml:space="preserve" xmlns:serif="http://www.serif.com/" style="fill-rule:evenodd;clip-rule:evenodd;stroke-miterlimit:2;"><g><path d="M469.039,399.311c3.905,7.902 13.677,10.859 21.322,6.456l100.89,-58.255c34.299,-19.802 77.689,-13.733 105.237,14.737l28.57,29.528c6.152,6.355 15.833,7.718 23.496,3.288c8.041,-4.633 18.236,-2.892 24.278,4.154l108.479,126.467c10.15,11.845 9.422,29.519 -1.676,40.47l-39.383,38.867c-9.523,9.395 -24.131,11.274 -35.718,4.578c-42.579,-24.601 -144.196,-81.695 -197.073,-97.675c-44.744,-13.53 -92.914,-18.154 -120.618,-19.729c-14.027,-0.801 -27.226,6.53 -33.912,18.881c-6.125,11.292 -17.776,18.494 -30.615,18.918l-17.767,0.589c-6.162,0.203 -12.176,1.98 -17.463,5.167l-201.319,121.281c-22.363,13.466 -51.357,7.027 -65.909,-14.654c-15.805,-23.532 -8.381,-55.529 16.173,-69.694l311.686,-179.84c7.645,-4.412 17.417,-1.455 21.322,6.466Z" style="fill:none;stroke:#102129;stroke-width:19.17px;"/><path d="M273.062,452.491l34.778,56.054" style="fill:none;stroke:#102129;stroke-width:19.17px;"/></g></svg>