<?xml version="1.0" encoding="UTF-8" standalone="no"?><!DOCTYPE svg PUBLIC "-//W3C//DTD SVG 1.1//EN" "http://www.w3.org/Graphics/SVG/1.1/DTD/svg11.dtd"><svg width="100%" height="100%" viewBox="0 0 3896 2292" version="1.1" xmlns="http://www.w3.org/2000/svg" xmlns:xlink="http://www.w3.org/1999/xlink" xml:space="preserve" xmlns:serif="http://www.serif.com/" style="fill-rule:evenodd;clip-rule:evenodd;stroke-miterlimit:2;"><rect id="Artboard1" x="0" y="-0" width="3895.833" height="2291.667" style="fill:none;"/><g><path d="M2404.233,2200.1c0,0 -498.938,-169.6 -822.713,-378.871c-323.775,-209.271 -668.379,-400.287 -889.521,-438.142c-154.454,-26.45 -410.725,-107.388 -551.129,-153.742c-42.538,-14.025 -51.658,-69.946 -15.988,-97.042l316.533,-240.092c-0,0 1485.258,-825.55 1589.175,-795.258c103.967,30.279 163.054,449.879 -109.8,604.804c-272.833,154.892 -811.558,296.496 -693.188,527.775c118.388,231.25 664.571,458.842 748.404,315.221c83.833,-143.621 -20.046,-417.088 184.108,-541.154c204.188,-124.05 1126.142,-852.717 1230.079,-822.454c103.967,30.279 478.1,309.492 406.242,449.962c-71.858,140.471 -1236.758,1626.183 -1392.204,1568.996l0,-0.004Z" style="fill:none;stroke:#000;stroke-width:79.88px;"/><path d="M2966.617,1865.3l-195.275,-134.262" style="fill:none;stroke:#000;stroke-width:79.88px;"/></g></svg>