<?xml version="1.0" encoding="UTF-8" standalone="no"?><!DOCTYPE svg PUBLIC "-//W3C//DTD SVG 1.1//EN" "http://www.w3.org/Graphics/SVG/1.1/DTD/svg11.dtd"><svg width="100%" height="100%" viewBox="0 0 1000 1000" version="1.1" xmlns="http://www.w3.org/2000/svg" xmlns:xlink="http://www.w3.org/1999/xlink" xml:space="preserve" xmlns:serif="http://www.serif.com/" style="fill-rule:evenodd;clip-rule:evenodd;stroke-miterlimit:2;"><g><path d="M608.016,754.024c0,0 -119.745,-40.704 -197.451,-90.929c-77.706,-50.225 -160.411,-96.069 -213.485,-105.154c-37.069,-6.348 -98.574,-25.773 -132.271,-36.898c-10.209,-3.366 -12.398,-16.787 -3.837,-23.29l75.968,-57.622c0,0 356.462,-198.132 381.402,-190.862c24.952,7.267 39.133,107.971 -26.352,145.153c-65.48,37.174 -194.774,71.159 -166.365,126.666c28.413,55.5 159.497,110.122 179.617,75.653c20.12,-34.469 -4.811,-100.101 44.186,-129.877c49.005,-29.772 270.274,-204.652 295.219,-197.389c24.952,7.267 114.744,74.278 97.498,107.991c-17.246,33.713 -296.822,390.284 -334.129,376.559Z" style="fill:none;stroke:#102129;stroke-width:19.17px;"/><path d="M738.988,679.672l-46.866,-32.223" style="fill:none;stroke:#102129;stroke-width:19.17px;"/></g></svg>