<?xml version="1.0" encoding="UTF-8" standalone="no"?><!DOCTYPE svg PUBLIC "-//W3C//DTD SVG 1.1//EN" "http://www.w3.org/Graphics/SVG/1.1/DTD/svg11.dtd"><svg width="100%" height="100%" viewBox="0 0 3530 2400" version="1.1" xmlns="http://www.w3.org/2000/svg" xmlns:xlink="http://www.w3.org/1999/xlink" xml:space="preserve" xmlns:serif="http://www.serif.com/" style="fill-rule:evenodd;clip-rule:evenodd;stroke-miterlimit:2;"><rect id="Artboard1" x="0" y="0" width="3529.167" height="2400" style="fill:none;"/><g><path d="M1056.158,1946.571l613.583,-1644.088c46.704,-125.183 182.983,-192.142 310.617,-152.708c99.167,30.663 155.504,135.033 126.692,234.758l-24.858,86.008c-11.396,39.433 -47.475,66.613 -88.546,66.613c-38.487,0 -72.933,-23.954 -86.35,-60.033l-12.083,-32.467c-16.512,-44.296 -68.85,-63.129 -109.787,-39.521c-31.133,18.017 -45.5,55.258 -34.487,89.533c35.437,110.346 144.237,180.058 259.313,166.167l513.296,-61.925c95.771,-11.567 192.787,-6.492 286.792,14.967l368.288,84.029c49.842,11.396 54.312,80.675 6.321,98.35c-169.996,62.658 -352.029,85.921 -532.346,68.075l-215.363,-21.287c-108.713,-10.75 -212.008,49.754 -255.787,149.871c-50.658,115.721 -37.154,249.508 35.521,352.804l90.696,128.883c43.346,61.625 42.1,144.108 -3.096,204.396c-35.567,47.392 -92.804,73.45 -151.933,69.067l-112.325,-8.342c-92.5,-6.838 -163.287,80.933 -137.013,169.867c15.825,53.496 63.387,91.383 119.033,94.779l988.75,61.025c56.379,3.483 99.554,-49.413 84.804,-103.983c-23.008,-85.104 55.475,-165.05 140.062,-140.279c95.554,27.996 192.571,90.567 192.571,229.212c0,273.121 -575.737,243.575 -834.104,243.575c-208.783,0 -1775.592,0.604 -2369.004,0.858c-63.346,0 -86.05,-83.558 -31.567,-115.896c92.629,-55.004 199.108,-82.308 306.746,-78.7l310.487,10.45c108.454,3.654 207.15,-62.4 245.079,-164.058Z" style="fill:none;stroke:#000;stroke-width:79.88px;"/><path d="M1280.487,970.808l238.029,88.588" style="fill:none;stroke:#000;stroke-width:79.88px;"/></g></svg>