<?xml version="1.0" encoding="UTF-8" standalone="no"?><!DOCTYPE svg PUBLIC "-//W3C//DTD SVG 1.1//EN" "http://www.w3.org/Graphics/SVG/1.1/DTD/svg11.dtd"><svg width="100%" height="100%" viewBox="0 0 1000 1000" version="1.1" xmlns="http://www.w3.org/2000/svg" xmlns:xlink="http://www.w3.org/1999/xlink" xml:space="preserve" xmlns:serif="http://www.serif.com/" style="fill-rule:evenodd;clip-rule:evenodd;stroke-miterlimit:2;"><g><path d="M322.478,675.177l147.26,-394.581c11.209,-30.044 43.916,-46.114 74.548,-36.65c23.8,7.359 37.321,32.408 30.406,56.342l-5.966,20.642c-2.735,9.464 -11.394,15.987 -21.251,15.987c-9.237,0 -17.504,-5.749 -20.724,-14.408l-2.9,-7.792c-3.963,-10.631 -16.524,-15.151 -26.349,-9.485c-7.472,4.324 -10.92,13.262 -8.277,21.488c8.505,26.483 34.617,43.214 62.235,39.88l123.191,-14.862c22.985,-2.776 46.269,-1.558 68.83,3.592l88.389,20.167c11.962,2.735 13.035,19.362 1.517,23.604c-40.799,15.038 -84.487,20.621 -127.763,16.338l-51.687,-5.109c-26.091,-2.58 -50.882,11.941 -61.389,35.969c-12.158,27.773 -8.917,59.882 8.525,84.673l21.767,30.932c10.403,14.79 10.104,34.586 -0.743,49.055c-8.536,11.374 -22.273,17.628 -36.464,16.576l-26.958,-2.002c-22.2,-1.641 -39.189,19.424 -32.883,40.768c3.798,12.839 15.213,21.932 28.568,22.747l237.3,14.646c13.531,0.836 23.893,-11.859 20.353,-24.956c-5.522,-20.425 13.314,-39.612 33.615,-33.667c22.933,6.719 46.217,21.736 46.217,55.011c0,65.549 -138.177,58.458 -200.185,58.458c-50.108,0 -426.142,0.145 -568.561,0.206c-15.203,0 -20.652,-20.054 -7.576,-27.815c22.231,-13.201 47.786,-19.754 73.619,-18.888l74.517,2.508c26.029,0.877 49.716,-14.976 58.819,-39.374Z" style="fill:none;stroke:#102129;stroke-width:19.17px;"/><path d="M380.317,440.994l57.127,21.261" style="fill:none;stroke:#102129;stroke-width:19.17px;"/></g></svg>