<?xml version="1.0" encoding="UTF-8" standalone="no"?><!DOCTYPE svg PUBLIC "-//W3C//DTD SVG 1.1//EN" "http://www.w3.org/Graphics/SVG/1.1/DTD/svg11.dtd"><svg width="100%" height="100%" viewBox="0 0 1000 1000" version="1.1" xmlns="http://www.w3.org/2000/svg" xmlns:xlink="http://www.w3.org/1999/xlink" xml:space="preserve" xmlns:serif="http://www.serif.com/" style="fill-rule:evenodd;clip-rule:evenodd;stroke-miterlimit:2;"><g><path d="M470.186,459.971l8.855,38.583c3.221,14.04 11.956,26.192 24.235,33.728l53.563,32.851c9.367,5.739 11.647,18.355 4.89,27.013l-14.552,18.643c-4.603,5.894 -0.4,14.496 7.072,14.496l36.948,0c7.346,0 13.991,-4.371 16.903,-11.121l93.97,-217.985c8.539,-19.8 -5.978,-41.867 -27.546,-41.867c-20.326,0 -34.759,-19.793 -28.557,-39.152c4.547,-14.173 18.804,-22.866 33.489,-20.418l56.826,9.472c29.385,4.897 53.745,25.462 63.512,53.612l42.358,122.134c8.77,25.294 4.175,53.303 -12.223,74.465c-7.276,9.381 -16.559,17.008 -27.182,22.319l-123.53,61.765c-7.921,3.957 -14.664,9.914 -19.576,17.281c-10.244,15.359 -28.009,23.968 -46.413,22.481l-7.669,-0.618c-14.11,-1.144 -28.052,3.648 -38.485,13.219l-1.537,1.41c-18.986,17.422 -48.006,17.892 -67.547,1.088l-15.745,-13.542c-6.694,-5.753 -14.77,-9.669 -23.435,-11.359l-286.605,-55.871c-16.131,-3.143 -23.933,-21.632 -14.938,-35.384l74.97,-114.605c5.957,-9.107 3.038,-21.351 -6.385,-26.796c-9.935,-5.732 -12.538,-18.916 -5.522,-27.995l27.834,-36.036c6.378,-8.265 17.359,-11.472 27.181,-7.943l160.675,57.64c17.204,6.174 30.079,20.677 34.163,38.492Z" style="fill:none;stroke:#102129;stroke-width:19.17px;"/><path d="M406.996,388.026l-15.653,42.154" style="fill:none;stroke:#102129;stroke-width:19.17px;"/></g></svg>