<?xml version="1.0" encoding="UTF-8" standalone="no"?><!DOCTYPE svg PUBLIC "-//W3C//DTD SVG 1.1//EN" "http://www.w3.org/Graphics/SVG/1.1/DTD/svg11.dtd"><svg width="100%" height="100%" viewBox="0 0 3084 1913" version="1.1" xmlns="http://www.w3.org/2000/svg" xmlns:xlink="http://www.w3.org/1999/xlink" xml:space="preserve" xmlns:serif="http://www.serif.com/" style="fill-rule:evenodd;clip-rule:evenodd;stroke-miterlimit:2;"><rect id="Artboard1" x="0" y="0" width="3083.333" height="1912.5" style="fill:none;"/><clipPath id="_clip1"><rect x="0" y="0" width="3083.333" height="1912.5"/></clipPath><g clip-path="url(#_clip1)"><g><path d="M1425.775,812.379l36.896,160.762c13.421,58.5 49.817,109.133 100.979,140.533l223.179,136.879c39.029,23.912 48.529,76.479 20.375,112.554l-60.633,77.679c-19.179,24.558 -1.667,60.4 29.467,60.4l153.95,0c30.608,0 58.296,-18.212 70.429,-46.337l391.542,-908.271c35.579,-82.5 -24.908,-174.446 -114.775,-174.446c-84.692,0 -144.829,-82.471 -118.988,-163.133c18.946,-59.054 78.35,-95.275 139.538,-85.075l236.775,39.467c122.438,20.404 223.938,106.092 264.633,223.383l176.492,508.892c36.542,105.392 17.396,222.096 -50.929,310.271c-30.317,39.088 -68.996,70.867 -113.258,92.996l-514.708,257.354c-33.004,16.488 -61.1,41.308 -81.567,72.004c-42.683,63.996 -116.704,99.867 -193.387,93.671l-31.954,-2.575c-58.792,-4.767 -116.883,15.2 -160.354,55.079l-6.404,5.875c-79.108,72.592 -200.025,74.55 -281.446,4.533l-65.604,-56.425c-27.892,-23.971 -61.542,-40.287 -97.646,-47.329l-1194.188,-232.796c-67.213,-13.096 -99.721,-90.133 -62.242,-147.433l312.375,-477.521c24.821,-37.946 12.658,-88.962 -26.604,-111.65c-41.396,-23.883 -52.242,-78.817 -23.008,-116.646l115.975,-150.15c26.575,-34.438 72.329,-47.8 113.254,-33.096l669.479,240.167c71.683,25.725 125.329,86.154 142.346,160.383l0.012,0Z" style="fill:none;stroke:#000;stroke-width:79.88px;"/><path d="M1162.483,512.608l-65.221,175.642" style="fill:none;stroke:#000;stroke-width:79.88px;"/></g></g></svg>