<?xml version="1.0" encoding="UTF-8" standalone="no"?><!DOCTYPE svg PUBLIC "-//W3C//DTD SVG 1.1//EN" "http://www.w3.org/Graphics/SVG/1.1/DTD/svg11.dtd"><svg width="100%" height="100%" viewBox="0 0 1000 1000" version="1.1" xmlns="http://www.w3.org/2000/svg" xmlns:xlink="http://www.w3.org/1999/xlink" xml:space="preserve" xmlns:serif="http://www.serif.com/" style="fill-rule:evenodd;clip-rule:evenodd;stroke-miterlimit:2;"><g><path d="M259.885,596.443l-129.559,116.154c-6.931,6.22 -17.754,-0.105 -15.751,-9.189l11.21,-50.882c1.318,-6 1.985,-12.132 1.985,-18.272c0,-23.007 9.33,-45.022 25.854,-61.028l59.518,-57.62c6.272,-6.079 10.603,-13.889 12.43,-22.428c3.777,-17.596 17.86,-31.125 35.587,-34.2c32.179,-5.57 62.425,-19.221 87.893,-39.672c40.27,-32.337 84.783,-58.999 132.3,-79.257l181.619,-77.412c13.555,-5.772 29.28,-2.179 38.979,8.899c9.277,10.612 24.132,14.398 37.362,9.54l29.438,-10.814c13.494,-4.955 28.639,-0.905 37.863,10.12l70.63,84.458c13.151,15.734 10.621,39.233 -5.578,51.796c-14.803,11.482 -35.913,9.778 -48.668,-3.936l-11.614,-12.492c-16.156,-17.359 -40.454,-24.615 -63.48,-18.949l-103.547,25.476c-27.857,6.852 -45.945,33.769 -41.755,62.153l0.712,4.814c3.312,22.428 19.889,40.604 41.921,45.954l81.945,19.889c20.882,5.069 34.419,25.274 31.151,46.516c-2.829,18.422 7.01,36.466 24.026,44.074l21.145,9.452c28.226,12.624 39.497,46.771 24.343,73.714c-14.337,25.494 -46.736,34.367 -72.053,19.74l-42.194,-24.352c-28.885,-16.674 -53.983,-39.172 -73.723,-66.053c-31.863,-43.406 -77.36,-74.882 -129.217,-89.404c-20.627,-5.772 -42.782,-0.764 -58.929,13.318l-30.967,27.014c-9.163,7.994 -20.425,13.186 -32.451,14.969l-80.311,11.93c-9.268,1.37 -17.947,-4.893 -19.555,-14.126c-2.337,-13.362 -18.457,-18.949 -28.56,-9.892Z" style="fill:none;stroke:#102129;stroke-width:19.17px;"/><path d="M183.562,628.042l35.06,44.109" style="fill:none;stroke:#102129;stroke-width:19.17px;"/></g></svg>