<?xml version="1.0" encoding="UTF-8" standalone="no"?><!DOCTYPE svg PUBLIC "-//W3C//DTD SVG 1.1//EN" "http://www.w3.org/Graphics/SVG/1.1/DTD/svg11.dtd"><svg width="100%" height="100%" viewBox="0 0 3388 2234" version="1.1" xmlns="http://www.w3.org/2000/svg" xmlns:xlink="http://www.w3.org/1999/xlink" xml:space="preserve" xmlns:serif="http://www.serif.com/" style="fill-rule:evenodd;clip-rule:evenodd;stroke-miterlimit:2;"><rect id="Artboard1" x="0" y="0" width="3387.5" height="2233.333" style="fill:none;"/><clipPath id="_clip1"><rect x="0" y="0" width="3387.5" height="2233.333"/></clipPath><g clip-path="url(#_clip1)"><g><path d="M703.688,1522.679l-539.829,483.975c-28.879,25.917 -73.975,-0.438 -65.629,-38.287l46.708,-212.008c5.492,-25 8.271,-50.55 8.271,-76.133c0,-95.862 38.875,-187.592 107.725,-254.283l247.992,-240.083c26.133,-25.329 44.179,-57.871 51.792,-93.45c15.737,-73.317 74.417,-129.687 148.279,-142.5c134.079,-23.208 260.104,-80.088 366.221,-165.3c167.792,-134.737 353.263,-245.829 551.25,-330.237l756.746,-322.55c56.479,-24.05 122,-9.079 162.412,37.079c38.654,44.217 100.55,59.992 155.675,39.75l122.658,-45.058c56.225,-20.646 119.329,-3.771 157.762,42.167l294.292,351.908c54.796,65.558 44.254,163.471 -23.242,215.817c-61.679,47.842 -149.637,40.742 -202.783,-16.4l-48.392,-52.05c-67.317,-72.329 -168.558,-102.562 -264.5,-78.954l-431.446,106.15c-116.071,28.55 -191.438,140.704 -173.979,258.971l2.967,20.058c13.8,93.45 82.871,169.183 174.671,191.475l341.438,82.871c87.008,21.121 143.413,105.308 129.796,193.817c-11.787,76.758 29.208,151.942 100.108,183.642l88.104,39.383c117.608,52.6 164.571,194.879 101.429,307.142c-59.737,106.225 -194.733,143.196 -300.221,82.25l-175.808,-101.467c-120.354,-69.475 -224.929,-163.217 -307.179,-275.221c-132.763,-180.858 -322.333,-312.008 -538.404,-372.517c-85.946,-24.05 -178.258,-3.183 -245.537,55.492l-129.029,112.558c-38.179,33.308 -85.104,54.942 -135.213,62.371l-334.629,49.708c-38.617,5.708 -74.779,-20.387 -81.479,-58.858c-9.737,-55.675 -76.904,-78.954 -119,-41.217l0.004,-0.008Z" style="fill:none;stroke:#000;stroke-width:79.88px;"/><path d="M331.508,1687.675l146.083,183.787" style="fill:none;stroke:#000;stroke-width:79.88px;"/></g></g></svg>