<?xml version="1.0" encoding="UTF-8" standalone="no"?><!DOCTYPE svg PUBLIC "-//W3C//DTD SVG 1.1//EN" "http://www.w3.org/Graphics/SVG/1.1/DTD/svg11.dtd"><svg width="100%" height="100%" viewBox="0 0 2892 3117" version="1.1" xmlns="http://www.w3.org/2000/svg" xmlns:xlink="http://www.w3.org/1999/xlink" xml:space="preserve" xmlns:serif="http://www.serif.com/" style="fill-rule:evenodd;clip-rule:evenodd;stroke-miterlimit:2;"><rect id="Artboard1" x="0" y="0" width="2891.667" height="3116.667" style="fill:none;"/><clipPath id="_clip1"><rect x="0" y="0" width="2891.667" height="3116.667"/></clipPath><g clip-path="url(#_clip1)"><g><path d="M2770.75,199.717l19.696,35.254c30.567,54.638 15.717,123.504 -34.696,160.688l-43.363,31.996c-25.004,18.45 -70.762,31.375 -101.7,28.733l-97.692,-8.292c-56.629,-4.817 -110.554,24.571 -137.233,74.738c-37.992,71.475 -88.779,164.075 -99.742,167.521c-57.529,18.079 -140.404,1.708 -203.183,-16.588c-52.433,-15.312 -108.283,8.604 -132.358,57.621l-50.787,103.471c-34.013,69.271 -123.692,88.808 -183.458,39.917l-2.238,-1.833c-83.25,-68.092 -202.933,-68.183 -286.242,-0.217c-52.683,42.958 -83.25,107.354 -83.25,175.317l0,68.058c0,37.367 9.258,74.146 26.963,107.075l172.708,321.408c9.6,17.892 12.675,38.579 8.696,58.492l-38.392,192c-8.604,42.992 -47.742,72.938 -91.479,70.046l-326.596,-21.775c-28.763,-1.925 -56.567,-11.183 -80.733,-26.9l-252.2,-163.95c-37.183,-24.137 -86.975,-12.083 -108.967,26.404c-18.079,31.621 -11.554,71.567 15.654,95.829l224.429,199.95c33.796,30.1 44.388,78.496 26.25,119.933l-14.692,33.579c-25.471,58.212 -57.746,113.192 -96.171,163.796c-120.025,158.108 -294.383,266.146 -489.425,303.296l-54.267,10.346c-85.392,16.275 -150.5,85.825 -161.062,172.121c-10.688,87.412 37.025,171.529 117.542,207.158l85.888,38.021c83.558,36.996 181.592,12.613 238.096,-59.238l600.663,-763.617c47.558,-60.479 83.308,-129.346 105.425,-203.025l68.525,-228.467c26.154,-87.1 14.446,-181.188 -32.213,-259.25l-228.25,-381.792c-15.842,-26.529 -13.946,-59.983 4.754,-84.554l48.954,-64.175c19.788,-25.967 19.942,-61.908 0.342,-88.033l-1.117,-1.521c-28.858,-38.454 -15.779,-93.283 27.275,-114.062c253.1,-122.108 1019.638,-492.654 1368.192,-661.171c98.967,-47.837 217.812,-10.221 271.458,85.704l-0.004,-0.012Z" style="fill:none;stroke:#000;stroke-width:79.88px;"/><path d="M1950.638,252.971l93.871,201.1" style="fill:none;stroke:#000;stroke-width:79.88px;"/></g></g></svg>