<?xml version="1.0" encoding="UTF-8" standalone="no"?><!DOCTYPE svg PUBLIC "-//W3C//DTD SVG 1.1//EN" "http://www.w3.org/Graphics/SVG/1.1/DTD/svg11.dtd"><svg width="100%" height="100%" viewBox="0 0 1000 1000" version="1.1" xmlns="http://www.w3.org/2000/svg" xmlns:xlink="http://www.w3.org/1999/xlink" xml:space="preserve" xmlns:serif="http://www.serif.com/" style="fill-rule:evenodd;clip-rule:evenodd;stroke-miterlimit:2;"><g><path d="M816.98,171.932l4.727,8.461c7.336,13.113 3.772,29.641 -8.327,38.565l-10.407,7.679c-6.001,4.428 -16.983,7.53 -24.408,6.896l-23.446,-1.99c-13.591,-1.156 -26.533,5.897 -32.936,17.937c-9.118,17.154 -21.307,39.378 -23.938,40.205c-13.807,4.339 -33.697,0.41 -48.764,-3.981c-12.584,-3.675 -25.988,2.065 -31.766,13.829l-12.189,24.833c-8.163,16.625 -29.686,21.314 -44.03,9.58l-0.537,-0.44c-19.98,-16.342 -48.704,-16.364 -68.698,-0.052c-12.644,10.31 -19.98,25.765 -19.98,42.076l0,16.334c0,8.968 2.222,17.795 6.471,25.698l41.45,77.138c2.304,4.294 3.042,9.259 2.087,14.038l-9.214,46.08c-2.065,10.318 -11.458,17.505 -21.955,16.811l-78.383,-5.226c-6.903,-0.462 -13.576,-2.684 -19.376,-6.456l-60.528,-39.348c-8.924,-5.793 -20.874,-2.9 -26.152,6.337c-4.339,7.589 -2.773,17.176 3.757,22.999l53.863,47.988c8.111,7.224 10.653,18.839 6.3,28.784l-3.526,8.059c-6.113,13.971 -13.859,27.166 -23.081,39.311c-28.806,37.946 -70.652,63.875 -117.462,72.791l-13.024,2.483c-20.494,3.906 -36.12,20.598 -38.655,41.309c-2.565,20.979 8.886,41.167 28.21,49.718l20.613,9.125c20.054,8.879 43.582,3.027 57.143,-14.217l144.159,-183.268c11.414,-14.515 19.994,-31.043 25.302,-48.726l16.446,-54.832c6.277,-20.904 3.467,-43.485 -7.731,-62.22l-54.78,-91.63c-3.802,-6.367 -3.347,-14.396 1.141,-20.293l11.749,-15.402c4.749,-6.232 4.786,-14.858 0.082,-21.128l-0.268,-0.365c-6.926,-9.229 -3.787,-22.388 6.546,-27.375c60.744,-29.306 244.713,-118.237 328.366,-158.681c23.752,-11.481 52.275,-2.453 65.15,20.569Z" style="fill:none;stroke:#102129;stroke-width:19.17px;"/><path d="M618.153,181.713l22.529,48.264" style="fill:none;stroke:#102129;stroke-width:19.17px;"/></g></svg>