<?xml version="1.0" encoding="UTF-8" standalone="no"?><!DOCTYPE svg PUBLIC "-//W3C//DTD SVG 1.1//EN" "http://www.w3.org/Graphics/SVG/1.1/DTD/svg11.dtd"><svg width="100%" height="100%" viewBox="0 0 1000 1000" version="1.1" xmlns="http://www.w3.org/2000/svg" xmlns:xlink="http://www.w3.org/1999/xlink" xml:space="preserve" xmlns:serif="http://www.serif.com/" style="fill-rule:evenodd;clip-rule:evenodd;stroke-miterlimit:2;"><g><path d="M361.474,355.667l86.686,169.03c7.306,14.255 24.585,20.169 39.101,13.391l60,-28.049c10.911,-5.102 17.659,-16.214 17.13,-28.25c-1.117,-25.107 2.882,-67.575 39.809,-82.5c53.751,-21.733 89.203,-12.579 137.235,-36.599c27.483,-13.741 41.857,-28.607 49.134,-38.811c5.295,-7.426 13.95,-11.648 23.036,-10.896c21.428,1.765 57.222,2.577 62.771,-10.904c8.006,-19.439 4.573,-33.158 -56.03,-33.158l-533.886,0c-14.449,0 -24.436,14.449 -19.32,27.967c3.158,8.349 0.618,17.733 -6.316,23.357c-14.248,11.544 -38.744,33.359 -58.019,60.745c-28.965,41.164 -62.51,132.654 -76.236,192.118c-9.034,39.139 -6.174,96.107 -3.165,130.487c1.303,14.911 15.715,25.084 30.171,21.167c10.427,-2.83 21.688,-5.273 29.412,-5.273c18.299,0 48.791,21.346 60.991,6.1c10.464,-13.086 -40.814,-108.121 -55.583,-134.836c-2.517,-4.558 -3.359,-9.824 -2.413,-14.94l7.217,-39.191c1.251,-6.8 5.564,-12.654 11.693,-15.864l14.561,-7.634c12.14,-6.368 27.103,-0.506 31.691,12.408l5.727,16.147c4.506,12.684 19.052,18.612 31.14,12.684l32.726,-16.035c11.969,-5.869 16.251,-20.787 9.228,-32.108l-56.745,-91.415c-7.098,-11.433 -4.446,-26.373 6.152,-34.67l42.378,-33.195c13.041,-10.211 32.167,-6.01 39.727,8.729Z" style="fill:none;stroke:#102129;stroke-width:19.17px;"/><path d="M396.449,500l57.944,-32.1" style="fill:none;stroke:#102129;stroke-width:19.17px;"/></g></svg>