<?xml version="1.0" encoding="UTF-8" standalone="no"?><!DOCTYPE svg PUBLIC "-//W3C//DTD SVG 1.1//EN" "http://www.w3.org/Graphics/SVG/1.1/DTD/svg11.dtd"><svg width="100%" height="100%" viewBox="0 0 3350 2105" version="1.1" xmlns="http://www.w3.org/2000/svg" xmlns:xlink="http://www.w3.org/1999/xlink" xml:space="preserve" xmlns:serif="http://www.serif.com/" style="fill-rule:evenodd;clip-rule:evenodd;stroke-miterlimit:2;"><rect id="Artboard1" x="0" y="0" width="3350" height="2104.167" style="fill:none;"/><clipPath id="_clip1"><rect x="0" y="0" width="3350" height="2104.167"/></clipPath><g clip-path="url(#_clip1)"><g><path d="M1110.308,440.279l361.192,704.292c30.442,59.396 102.438,84.037 162.921,55.796l250,-116.871c45.462,-21.258 73.579,-67.558 71.375,-117.708c-4.654,-104.612 12.008,-281.562 165.871,-343.75c223.962,-90.554 371.679,-52.412 571.812,-152.496c114.512,-57.254 174.404,-119.196 204.725,-161.712c22.062,-30.942 58.125,-48.533 95.983,-45.4c89.283,7.354 238.425,10.737 261.546,-45.433c33.358,-80.996 19.054,-138.158 -233.458,-138.158l-2224.525,0c-60.204,0 -101.817,60.204 -80.5,116.529c13.158,34.787 2.575,73.888 -26.317,97.321c-59.367,48.1 -161.433,138.996 -241.746,253.104c-120.688,171.517 -260.458,552.725 -317.65,800.492c-37.642,163.079 -25.725,400.446 -13.188,543.696c5.429,62.129 65.479,104.517 125.712,88.196c43.446,-11.792 90.367,-21.971 122.55,-21.971c76.246,0 203.296,88.942 254.129,25.417c43.6,-54.525 -170.058,-450.504 -231.596,-561.817c-10.487,-18.992 -13.996,-40.933 -10.054,-62.25l30.071,-163.296c5.212,-28.333 23.183,-52.725 48.721,-66.1l60.671,-31.808c50.583,-26.533 112.929,-2.108 132.046,51.7l23.862,67.279c18.775,52.85 79.383,77.55 129.75,52.85l136.358,-66.812c49.871,-24.454 67.712,-86.613 38.45,-133.783l-236.438,-380.896c-29.575,-47.637 -18.525,-109.887 25.633,-144.458l176.575,-138.312c58.504,-34.213 138.196,-20.875 165.529,36.371l-0.013,-0.008Z" style="fill:none;stroke:#000;stroke-width:79.88px;"/><path d="M1256.037,1041.667l241.433,-133.75" style="fill:none;stroke:#000;stroke-width:79.88px;"/></g></g></svg>