<?xml version="1.0" encoding="UTF-8" standalone="no"?><!DOCTYPE svg PUBLIC "-//W3C//DTD SVG 1.1//EN" "http://www.w3.org/Graphics/SVG/1.1/DTD/svg11.dtd"><svg width="100%" height="100%" viewBox="0 0 1000 1000" version="1.1" xmlns="http://www.w3.org/2000/svg" xmlns:xlink="http://www.w3.org/1999/xlink" xml:space="preserve" xmlns:serif="http://www.serif.com/" style="fill-rule:evenodd;clip-rule:evenodd;stroke-linecap:round;stroke-linejoin:round;stroke-miterlimit:1.5;"><path d="M277.687,812.875c-5.588,-0.152 -11.163,-0.613 -16.7,-1.383l-5.628,-0.644c-6.425,-0.715 -12.517,-1.359 -18.333,-1.979c-15.242,-1.618 -28.407,-3.016 -40.912,-4.894c-19.209,-2.875 -70.003,-32.559 -75.898,-85.611c-5.385,-48.457 2.788,-64.897 21.786,-97.464c7.266,-12.458 42.476,-73.899 83.242,-145.048c61.052,-106.536 130.246,-227.289 142.441,-247.861c14.791,-24.971 28.034,-37.429 42.935,-40.391c12.881,-1.905 25.968,1.976 35.728,10.596c31.946,23.957 10.443,57.168 -1.107,75.014l-3.071,4.76c-11.711,18.176 -36.085,56.005 -40.622,78.683c-1.017,5.098 -1.752,11.641 -2.533,18.577c-3.122,27.83 -7.399,65.942 -38.214,73.663c-20.591,5.516 -41.478,9.862 -62.56,13.016c-5.434,1.225 -9.879,5.151 -11.767,10.392c1.41,9.858 4.371,12.426 13.248,11.445c7.031,-0.856 14.005,-2.125 20.886,-3.802c12.119,-2.897 24.433,-4.913 36.843,-6.033c7.435,-0.676 14.728,-1.807 22.453,-3c22.342,-4.869 45.449,-5.075 67.874,-0.605c17.889,4.704 35.399,10.749 52.38,18.082c10.169,4.37 20.566,8.19 31.145,11.445c4.693,1.304 8.46,2.498 11.743,3.535c12.03,3.825 16.083,5.098 40.551,1.869c23.64,-2.005 46.587,-9.01 67.317,-20.548c25.142,-12.546 53.776,-16.319 81.31,-10.714c3.986,0.566 8.597,1.194 13.624,1.877c30.658,4.163 72.65,9.874 91.36,18.058c23.386,11.467 39.571,33.877 43.103,59.681l0.082,1.123c4.318,29.062 -5.272,58.525 -25.87,79.476c-7.914,8.287 -14.398,14.712 -19.936,20.195c-11.178,9.937 -20.81,21.488 -28.576,34.271c-5.667,9.63 -10.341,17.029 -14.567,23.714c-5.263,8.334 -9.811,15.529 -14.681,24.578c-12.458,23.133 -34.09,29.621 -72.316,21.711c-39.263,-8.114 -98.611,-47.9 -100.146,-86.223c-0.575,-8.601 2.511,-17.057 8.491,-23.266c14.921,-15.231 45.099,-14.665 69.331,-14.194c3.653,0.071 7.117,0.134 10.286,0.134c19.712,0 65.679,-3.417 66.727,-35.072c0.715,-21.373 -46.034,-37.594 -125.046,-43.375c-49.788,-3.668 -135.026,4.846 -175.42,17.485c-11.201,3.495 -22.245,7.659 -32.928,11.688c-32.017,12.073 -57.298,21.609 -68.133,4.579c-2.34,-3.876 -4.408,-7.91 -6.19,-12.073c-6.704,-14.712 -9.544,-18.168 -20.003,-15.561c-11.637,2.914 -12.187,8.248 -10.852,23.997c0.287,3.385 0.554,6.685 0.554,9.756c0,6.7 1.324,34.844 2.73,64.638c1.807,38.355 3.672,78.007 3.672,90.638c0,24.743 -3.35,38.748 -22.394,51.442c-7.838,6.137 -17.487,9.521 -27.441,9.623Zm139.648,-605.817c-0.939,-0.003 -1.875,0.087 -2.796,0.267c-8.574,1.705 -18.243,11.814 -29.558,30.909l0,0.008c-12.108,20.43 -84.291,146.4 -142.288,247.61c-40.791,71.181 -76.02,132.661 -83.325,145.182c-17.006,29.149 -24.044,41.214 -19.17,85.115c4.603,41.387 46.737,66.123 58.896,67.937c12.081,1.814 25.045,3.189 40.056,4.784c5.848,0.628 11.971,1.273 18.431,1.995l5.722,0.652c17.501,2.027 19.739,2.294 30.67,-4.996c11.178,-7.454 13.44,-13.29 13.44,-34.711c0,-12.159 -1.94,-53.343 -3.653,-89.687c-1.473,-31.341 -2.749,-58.417 -2.749,-65.588c0,-2.537 -0.244,-5.263 -0.483,-8.06c-1.119,-13.243 -3.209,-37.892 26.015,-45.205c27.799,-6.952 37.433,14.139 43.175,26.738c1.407,3.308 3.03,6.52 4.858,9.614c4.697,2.168 28.411,-6.7 44.074,-12.599c10.95,-4.132 22.269,-8.397 34.024,-12.073c43.041,-13.455 130.203,-22.198 182.886,-18.349c96.521,7.069 144.86,28.639 143.678,64.112c-1.155,34.64 -32.802,54.505 -86.828,54.505c-3.287,0 -6.881,-0.071 -10.671,-0.141c-18.212,-0.346 -45.735,-0.872 -54.58,8.161c-2.139,2.238 -3.156,5.326 -2.765,8.397c1.017,25.457 49.034,60.082 84.126,67.34c36.788,7.58 45.142,-1.532 50.538,-11.562c5.2,-9.662 9.921,-17.132 15.388,-25.78c4.128,-6.535 8.695,-13.762 14.233,-23.172c8.616,-14.298 19.32,-27.228 31.757,-38.363c5.428,-5.373 11.786,-11.664 19.539,-19.794c23.235,-24.342 21.573,-47.341 20.36,-64.135l-0.079,-1.147c-2.901,-18.388 -14.495,-34.294 -31.113,-42.684c-16.138,-7.069 -58.181,-12.78 -86.007,-16.558c-5.074,-0.691 -9.733,-1.327 -13.758,-1.901c-26.298,-3.762 -44.298,-3.425 -69.693,8.907c-22.669,12.467 -47.682,20.09 -73.451,22.386c-27.81,3.684 -34.793,1.964 -49.27,-2.639c-3.091,-0.974 -6.633,-2.105 -11.044,-3.33c-11.322,-3.444 -22.445,-7.508 -33.321,-12.175c-16.048,-6.964 -32.602,-12.701 -49.517,-17.163c-19.883,-3.815 -40.34,-3.502 -60.098,0.919c-7.694,1.186 -15.651,2.427 -23.722,3.158c-11.543,1.035 -22.995,2.915 -34.263,5.624c-7.6,1.836 -15.3,3.226 -23.062,4.163c-11.48,1.304 -31.388,-0.731 -35.375,-28.615c-0.67,-6.817 1.429,-13.626 5.82,-18.883c5.652,-7.588 14.025,-12.705 23.356,-14.271c20.276,-3.069 40.365,-7.268 60.173,-12.576c17.273,-4.32 20.513,-33.195 23.117,-56.398c0.828,-7.376 1.61,-14.335 2.8,-20.274c5.282,-26.424 30.1,-64.936 43.434,-85.634l3.095,-4.799c15.486,-23.91 20.321,-37.193 5.923,-47.993c-4.735,-4.151 -10.674,-6.683 -16.947,-7.226Z" style="fill-rule:nonzero;"/><path d="M248.932,396.849l51.575,28.367" style="fill:none;stroke:#000;stroke-width:19.17px;"/></svg>