<?xml version="1.0" encoding="UTF-8" standalone="no"?><!DOCTYPE svg PUBLIC "-//W3C//DTD SVG 1.1//EN" "http://www.w3.org/Graphics/SVG/1.1/DTD/svg11.dtd"><svg width="100%" height="100%" viewBox="0 0 3234 2696" version="1.1" xmlns="http://www.w3.org/2000/svg" xmlns:xlink="http://www.w3.org/1999/xlink" xml:space="preserve" xmlns:serif="http://www.serif.com/" style="fill-rule:evenodd;clip-rule:evenodd;stroke-linecap:round;stroke-linejoin:round;stroke-miterlimit:1.5;"><rect id="Artboard1" x="0" y="0" width="3233.333" height="2695.833" style="fill:none;"/><path d="M702.862,2636.979c-23.283,-0.633 -46.513,-2.554 -69.583,-5.763l-23.45,-2.683c-26.771,-2.979 -52.154,-5.662 -76.388,-8.246c-63.508,-6.742 -118.363,-12.567 -170.467,-20.392c-80.038,-11.979 -291.679,-135.662 -316.242,-356.712c-22.438,-201.904 11.617,-270.404 90.775,-406.1c30.275,-51.908 176.983,-307.912 346.842,-604.367c254.383,-443.9 542.692,-947.038 593.504,-1032.754c61.629,-104.046 116.808,-155.954 178.896,-168.296c53.671,-7.938 108.2,8.233 148.867,44.15c133.108,99.821 43.513,238.2 -4.613,312.558l-12.796,19.833c-48.796,75.733 -150.354,233.354 -169.258,327.846c-4.237,21.242 -7.3,48.504 -10.554,77.404c-13.008,115.958 -30.829,274.758 -159.225,306.929c-85.796,22.983 -172.825,41.092 -260.667,54.233c-22.642,5.104 -41.163,21.463 -49.029,43.3c5.875,41.075 18.213,51.775 55.2,47.688c29.296,-3.567 58.354,-8.854 87.025,-15.842c50.496,-12.071 101.804,-20.471 153.513,-25.138c30.979,-2.817 61.367,-7.529 93.554,-12.5c93.092,-20.288 189.371,-21.146 282.808,-2.521c74.538,19.6 147.496,44.788 218.25,75.342c42.371,18.208 85.692,34.125 129.771,47.688c19.554,5.433 35.25,10.408 48.929,14.729c50.125,15.938 67.012,21.242 168.963,7.788c98.5,-8.354 194.113,-37.542 280.488,-85.617c104.758,-52.275 224.067,-67.996 338.792,-44.642c16.608,2.358 35.821,4.975 56.767,7.821c127.742,17.346 302.708,41.142 380.667,75.242c97.442,47.779 164.879,141.154 179.596,248.671l0.342,4.679c17.992,121.092 -21.967,243.854 -107.792,331.15c-32.975,34.529 -59.992,61.3 -83.067,84.146c-46.575,41.404 -86.708,89.533 -119.067,142.796c-23.612,40.125 -43.087,70.954 -60.696,98.808c-21.929,34.725 -40.879,64.704 -61.171,102.408c-51.908,96.388 -142.042,123.421 -301.317,90.463c-163.596,-33.808 -410.879,-199.583 -417.275,-359.262c-2.396,-35.838 10.463,-71.071 35.379,-96.942c62.171,-63.463 187.913,-61.104 288.879,-59.142c15.221,0.296 29.654,0.558 42.858,0.558c82.133,0 273.662,-14.238 278.029,-146.133c2.979,-89.054 -191.808,-156.642 -521.025,-180.729c-207.45,-15.283 -562.608,20.192 -730.917,72.854c-46.671,14.562 -92.688,31.912 -137.2,48.7c-133.404,50.304 -238.742,90.038 -283.887,19.079c-9.75,-16.15 -18.367,-32.958 -25.792,-50.304c-27.933,-61.3 -39.767,-75.7 -83.346,-64.838c-48.487,12.142 -50.779,34.367 -45.217,99.988c1.196,14.104 2.308,27.854 2.308,40.65c0,27.917 5.517,145.183 11.375,269.325c7.529,159.812 15.3,325.029 15.3,377.658c0,103.096 -13.958,161.45 -93.308,214.342c-32.658,25.571 -72.863,39.671 -114.337,40.096l0.008,0Zm581.867,-2524.238c-3.913,-0.013 -7.812,0.362 -11.65,1.112c-35.725,7.104 -76.013,49.225 -123.158,128.788l0,0.033c-50.45,85.125 -351.213,610 -592.867,1031.708c-169.962,296.588 -316.75,552.754 -347.187,604.925c-70.858,121.454 -100.183,171.725 -79.875,354.646c19.179,172.446 194.737,275.513 245.4,283.071c50.337,7.558 104.354,13.287 166.9,19.933c24.367,2.617 49.879,5.304 76.796,8.312l23.842,2.717c72.921,8.446 82.246,9.558 127.792,-20.817c46.575,-31.058 56,-55.375 56,-144.629c0,-50.662 -8.083,-222.262 -15.221,-373.696c-6.138,-130.588 -11.454,-243.404 -11.454,-273.283c0,-10.571 -1.017,-21.929 -2.012,-33.583c-4.663,-55.179 -13.371,-157.883 108.396,-188.354c115.829,-28.967 155.971,58.913 179.896,111.408c5.862,13.783 12.625,27.167 20.242,40.058c19.571,9.033 118.379,-27.917 183.642,-52.496c45.625,-17.217 92.788,-34.988 141.767,-50.304c179.337,-56.062 542.513,-92.492 762.025,-76.454c402.171,29.454 603.583,119.329 598.658,267.133c-4.812,144.333 -136.675,227.104 -361.783,227.104c-13.696,0 -28.671,-0.296 -44.463,-0.587c-75.883,-1.442 -190.562,-3.633 -227.417,34.004c-8.912,9.325 -13.15,22.192 -11.521,34.988c4.238,106.071 204.308,250.342 350.525,280.583c153.283,31.583 188.092,-6.383 210.575,-48.175c21.667,-40.258 41.338,-71.383 64.117,-107.417c17.2,-27.229 36.229,-57.342 59.304,-96.55c35.9,-59.575 80.5,-113.45 132.321,-159.846c22.617,-22.387 49.108,-48.6 81.412,-82.475c96.812,-101.425 89.888,-197.254 84.833,-267.229l-0.329,-4.779c-12.087,-76.617 -60.396,-142.892 -129.638,-177.85c-67.242,-29.454 -242.421,-53.25 -358.363,-68.992c-21.142,-2.879 -40.554,-5.529 -57.325,-7.921c-109.575,-15.675 -184.575,-14.271 -290.387,37.112c-94.454,51.946 -198.675,83.708 -306.046,93.275c-115.875,15.35 -144.971,8.183 -205.292,-10.996c-12.879,-4.058 -27.638,-8.771 -46.017,-13.875c-47.175,-14.35 -93.521,-31.283 -138.838,-50.729c-66.867,-29.017 -135.842,-52.921 -206.321,-71.513c-82.846,-15.896 -168.083,-14.592 -250.408,3.829c-32.058,4.942 -65.213,10.112 -98.842,13.158c-48.096,4.312 -95.812,12.146 -142.762,23.433c-31.667,7.65 -63.75,13.442 -96.092,17.346c-47.833,5.433 -130.783,-3.046 -147.396,-119.229c-2.792,-28.404 5.954,-56.775 24.25,-78.679c23.55,-31.617 58.438,-52.938 97.317,-59.463c84.483,-12.788 168.188,-30.283 250.721,-52.4c71.971,-18 85.471,-138.312 96.321,-234.992c3.45,-30.733 6.708,-59.729 11.667,-84.475c22.008,-110.1 125.417,-270.567 180.975,-356.808l12.896,-19.996c64.525,-99.625 84.671,-154.971 24.679,-199.971c-19.729,-17.296 -44.475,-27.846 -70.612,-30.108l0.008,-0.008Z" style="fill-rule:nonzero;"/><path d="M583.05,903.538l214.896,118.196" style="fill:none;stroke:#000;stroke-width:79.88px;"/></svg>